<svg height="400" viewBox="0 0 2400 1600" width="600" xmlns="http://www.w3.org/2000/svg" xmlns:xlink="http://www.w3.org/1999/xlink"><clipPath id="a"><path d="m0 0h2400v1600h-2400z"/></clipPath><clipPath id="b"><path d="m236 123h2118v1301h-2118z"/></clipPath><path clip-path="url(#a)" d="m0 1600h2400v-1600h-2400z" fill="#fff" fill-rule="evenodd"/><path clip-path="url(#a)" d="m236.203 1423.18h2116.557v-1299.708h-2116.557z" fill="#fff" fill-rule="evenodd"/><path d="m236.203 1423.18h2116.557" style="stroke:#000;stroke-linecap:round;stroke-linejoin:round;stroke-width:4;fill:none;clip-path:url(#a)"/><path d="m236.203 123.472h2116.557" style="stroke:#000;stroke-linecap:round;stroke-linejoin:round;stroke-width:4;fill:none;clip-path:url(#a)"/><path d="m495.78 1423.18v-18.9" style="stroke:#000;stroke-linecap:round;stroke-linejoin:round;stroke-width:4;fill:none;clip-path:url(#a)"/><path d="m895.13 1423.18v-18.9" style="stroke:#000;stroke-linecap:round;stroke-linejoin:round;stroke-width:4;fill:none;clip-path:url(#a)"/><path d="m1294.48 1423.18v-18.9" style="stroke:#000;stroke-linecap:round;stroke-linejoin:round;stroke-width:4;fill:none;clip-path:url(#a)"/><path d="m1693.83 1423.18v-18.9" style="stroke:#000;stroke-linecap:round;stroke-linejoin:round;stroke-width:4;fill:none;clip-path:url(#a)"/><path d="m2093.18 1423.18v-18.9" style="stroke:#000;stroke-linecap:round;stroke-linejoin:round;stroke-width:4;fill:none;clip-path:url(#a)"/><path clip-path="url(#a)" d="m466.68 1472.22q.296.29.296.71 0 .42-.296.72-.297.29-.717.29h-31.669q-.42 0-.717-.29-.296-.3-.296-.72 0-.42.296-.71.297-.3.717-.3h31.669q.42 0 .717.3z" fill-rule="evenodd"/><path clip-path="url(#a)" d="m471.769 1469.4q0-7.44 1.877-11.49 2.619-6.03 8.795-6.03 1.309 0 2.668.38 1.383.34 3.112 1.7 1.754 1.36 2.816 3.58 2.026 4.3 2.026 11.86 0 7.39-1.877 11.41-2.743 5.88-8.795 5.88-2.273 0-4.595-1.16-2.297-1.16-3.755-3.95-2.272-4.18-2.272-12.18m4.199-.62q0 7.63.544 10.67.617 3.29 2.297 4.72 1.705 1.41 3.582 1.41 2.026 0 3.706-1.51 1.704-1.53 2.223-4.81.568-3.24.543-10.48 0-7.04-.494-9.86-.667-3.28-2.445-4.59-1.754-1.33-3.533-1.33-.667 0-1.383.19-.692.2-1.705.77-1.013.57-1.803 1.98-.766 1.4-1.136 3.53-.396 2.74-.396 9.31z" fill-rule="evenodd"/><path clip-path="url(#a)" d="m500.153 1484.76q-.766-.81-.766-1.87 0-1.07.766-1.83.766-.79 1.927-.79 1.111 0 1.852.74.766.72.766 1.9 0 1.16-.815 1.93-.79.74-1.803.74-1.161 0-1.927-.82z" fill-rule="evenodd"/><path clip-path="url(#a)" d="m511.121 1469.4q0-7.44 1.878-11.49 2.618-6.03 8.794-6.03 1.309 0 2.668.38 1.383.34 3.113 1.7 1.754 1.36 2.816 3.58 2.025 4.3 2.025 11.86 0 7.39-1.877 11.41-2.742 5.88-8.794 5.88-2.273 0-4.595-1.16-2.298-1.16-3.755-3.95-2.273-4.18-2.273-12.18m4.2-.62q0 7.63.543 10.67.618 3.29 2.298 4.72 1.704 1.41 3.582 1.41 2.025 0 3.705-1.51 1.705-1.53 2.223-4.81.569-3.24.544-10.48 0-7.04-.494-9.86-.667-3.28-2.446-4.59-1.754-1.33-3.532-1.33-.667 0-1.384.19-.691.2-1.704.77-1.013.57-1.804 1.98-.765 1.4-1.136 3.53-.395 2.74-.395 9.31z" fill-rule="evenodd"/><path clip-path="url(#a)" d="m535.849 1477.23v-1.56l15.539-23.74q.395-.61 1.012-.59.569 0 .692.22.124.23.124 1.09v23.02h5.064v1.56h-5.064v4.4q0 1.45.593 1.92.617.47 3.236.47h1.062v1.56q-2.075-.15-6.868-.15-4.767 0-6.842.15v-1.56h1.062q2.618 0 3.236-.44.618-.47.618-1.95v-4.4zm1.433-1.56h12.327v-18.87z" fill-rule="evenodd"/><path clip-path="url(#a)" d="m866.585 1472.22q.297.29.297.71 0 .42-.297.72-.296.29-.716.29h-31.67q-.42 0-.716-.29-.297-.3-.297-.72 0-.42.297-.71.296-.3.716-.3h31.67q.42 0 .716.3z" fill-rule="evenodd"/><path clip-path="url(#a)" d="m871.674 1469.4q0-7.44 1.878-11.49 2.618-6.03 8.794-6.03 1.309 0 2.668.38 1.383.34 3.113 1.7 1.753 1.36 2.816 3.58 2.025 4.3 2.025 11.86 0 7.39-1.877 11.41-2.742 5.88-8.794 5.88-2.273 0-4.595-1.16-2.298-1.16-3.755-3.95-2.273-4.18-2.273-12.18m4.2-.62q0 7.63.543 10.67.618 3.29 2.298 4.72 1.704 1.41 3.582 1.41 2.025 0 3.705-1.51 1.705-1.53 2.223-4.81.569-3.24.544-10.48 0-7.04-.494-9.86-.667-3.28-2.446-4.59-1.754-1.33-3.532-1.33-.667 0-1.384.19-.692.2-1.704.77-1.013.57-1.804 1.98-.766 1.4-1.136 3.53-.395 2.74-.395 9.31z" fill-rule="evenodd"/><path clip-path="url(#a)" d="m900.058 1484.76q-.766-.81-.766-1.87 0-1.07.766-1.83.766-.79 1.927-.79 1.112 0 1.853.74.766.72.766 1.9 0 1.16-.816 1.93-.79.74-1.803.74-1.161 0-1.927-.82z" fill-rule="evenodd"/><path clip-path="url(#a)" d="m911.027 1469.4q0-7.44 1.877-11.49 2.619-6.03 8.794-6.03 1.31 0 2.668.38 1.384.34 3.113 1.7 1.754 1.36 2.816 3.58 2.026 4.3 2.026 11.86 0 7.39-1.878 11.41-2.742 5.88-8.794 5.88-2.273 0-4.595-1.16-2.297-1.16-3.755-3.95-2.272-4.18-2.272-12.18m4.199-.62q0 7.63.544 10.67.617 3.29 2.297 4.72 1.705 1.41 3.582 1.41 2.026 0 3.706-1.51 1.704-1.53 2.223-4.81.568-3.24.543-10.48 0-7.04-.494-9.86-.667-3.28-2.445-4.59-1.754-1.33-3.533-1.33-.667 0-1.383.19-.692.2-1.705.77-1.013.57-1.803 1.98-.766 1.4-1.137 3.53-.395 2.74-.395 9.31z" fill-rule="evenodd"/><path clip-path="url(#a)" d="m936.866 1485.58q0-.91.074-1.19.099-.27.494-.69l9.709-10.82q5.311-5.98 5.311-11.19 0-3.38-1.779-5.8-1.753-2.42-4.99-2.42-2.223 0-4.1 1.35-1.878 1.36-2.742 3.78.148-.05.667-.05 1.259 0 1.951.79.716.8.716 1.86 0 1.36-.889 2.02-.864.65-1.729.65-.346 0-.815-.08-.445-.07-1.161-.76-.717-.72-.717-1.98 0-3.53 2.668-6.35 2.693-2.82 6.794-2.82 4.644 0 7.682 2.77 3.064 2.74 3.064 7.04 0 1.51-.47 2.89-.444 1.36-1.062 2.42-.593 1.07-2.223 2.77-1.631 1.7-2.94 2.91-1.309 1.22-4.249 3.78l-5.361 5.22h9.116q4.447 0 4.792-.4.494-.71 1.112-4.49h1.285l-1.433 8.79z" fill-rule="evenodd"/><path clip-path="url(#a)" d="m1251.51 1469.4q0-7.44 1.88-11.49 2.61-6.03 8.79-6.03 1.31 0 2.67.38 1.38.34 3.11 1.7 1.75 1.36 2.82 3.58 2.02 4.3 2.02 11.86 0 7.39-1.88 11.41-2.74 5.88-8.79 5.88-2.27 0-4.59-1.16-2.3-1.16-3.76-3.95-2.27-4.18-2.27-12.18m4.2-.62q0 7.63.54 10.67.62 3.29 2.3 4.72 1.7 1.41 3.58 1.41 2.03 0 3.71-1.51 1.7-1.53 2.22-4.81.57-3.24.54-10.48 0-7.04-.49-9.86-.67-3.28-2.45-4.59-1.75-1.33-3.53-1.33-.67 0-1.38.19-.69.2-1.71.77-1.01.57-1.8 1.98-.77 1.4-1.14 3.53-.39 2.74-.39 9.31z" fill-rule="evenodd"/><path clip-path="url(#a)" d="m1279.89 1484.76q-.76-.81-.76-1.87 0-1.07.76-1.83.77-.79 1.93-.79 1.11 0 1.85.74.77.72.77 1.9 0 1.16-.82 1.93-.79.74-1.8.74-1.16 0-1.93-.82z" fill-rule="evenodd"/><path clip-path="url(#a)" d="m1290.86 1469.4q0-7.44 1.88-11.49 2.62-6.03 8.79-6.03 1.31 0 2.67.38 1.38.34 3.11 1.7 1.76 1.36 2.82 3.58 2.02 4.3 2.02 11.86 0 7.39-1.87 11.41-2.74 5.88-8.8 5.88-2.27 0-4.59-1.16-2.3-1.16-3.76-3.95-2.27-4.18-2.27-12.18m4.2-.62q0 7.63.54 10.67.62 3.29 2.3 4.72 1.71 1.41 3.58 1.41 2.03 0 3.71-1.51 1.7-1.53 2.22-4.81.57-3.24.55-10.48 0-7.04-.5-9.86-.67-3.28-2.44-4.59-1.76-1.33-3.54-1.33-.66 0-1.38.19-.69.2-1.7.77-1.02.57-1.81 1.98-.76 1.4-1.13 3.53-.4 2.74-.4 9.31z" fill-rule="evenodd"/><path clip-path="url(#a)" d="m1316.16 1469.4q0-7.44 1.87-11.49 2.62-6.03 8.8-6.03 1.31 0 2.67.38 1.38.34 3.11 1.7 1.75 1.36 2.82 3.58 2.02 4.3 2.02 11.86 0 7.39-1.88 11.41-2.74 5.88-8.79 5.88-2.27 0-4.6-1.16-2.29-1.16-3.75-3.95-2.27-4.18-2.27-12.18m4.2-.62q0 7.63.54 10.67.62 3.29 2.3 4.72 1.7 1.41 3.58 1.41 2.02 0 3.7-1.51 1.71-1.53 2.23-4.81.57-3.24.54-10.48 0-7.04-.49-9.86-.67-3.28-2.45-4.59-1.75-1.33-3.53-1.33-.67 0-1.38.19-.7.2-1.71.77-1.01.57-1.8 1.98-.77 1.4-1.14 3.53-.39 2.74-.39 9.31z" fill-rule="evenodd"/><path clip-path="url(#a)" d="m1651.13 1469.4q0-7.44 1.88-11.49 2.62-6.03 8.79-6.03 1.31 0 2.67.38 1.38.34 3.11 1.7 1.76 1.36 2.82 3.58 2.02 4.3 2.02 11.86 0 7.39-1.87 11.41-2.75 5.88-8.8 5.88-2.27 0-4.59-1.16-2.3-1.16-3.76-3.95-2.27-4.18-2.27-12.18m4.2-.62q0 7.63.54 10.67.62 3.29 2.3 4.72 1.7 1.41 3.58 1.41 2.03 0 3.71-1.51 1.7-1.53 2.22-4.81.57-3.24.54-10.48 0-7.04-.49-9.86-.67-3.28-2.45-4.59-1.75-1.33-3.53-1.33-.67 0-1.38.19-.69.2-1.71.77-1.01.57-1.8 1.98-.77 1.4-1.14 3.53-.39 2.74-.39 9.31z" fill-rule="evenodd"/><path clip-path="url(#a)" d="m1679.51 1484.76q-.76-.81-.76-1.87 0-1.07.76-1.83.77-.79 1.93-.79 1.11 0 1.85.74.77.72.77 1.9 0 1.16-.82 1.93-.79.74-1.8.74-1.16 0-1.93-.82z" fill-rule="evenodd"/><path clip-path="url(#a)" d="m1690.48 1469.4q0-7.44 1.88-11.49 2.62-6.03 8.79-6.03 1.31 0 2.67.38 1.38.34 3.11 1.7 1.76 1.36 2.82 3.58 2.03 4.3 2.03 11.86 0 7.39-1.88 11.41-2.74 5.88-8.8 5.88-2.27 0-4.59-1.16-2.3-1.16-3.76-3.95-2.27-4.18-2.27-12.18m4.2-.62q0 7.63.54 10.67.62 3.29 2.3 4.72 1.71 1.41 3.58 1.41 2.03 0 3.71-1.51 1.7-1.53 2.22-4.81.57-3.24.55-10.48 0-7.04-.5-9.86-.66-3.28-2.44-4.59-1.76-1.33-3.54-1.33-.66 0-1.38.19-.69.2-1.7.77-1.02.57-1.81 1.98-.76 1.4-1.13 3.53-.4 2.74-.4 9.31z" fill-rule="evenodd"/><path clip-path="url(#a)" d="m1716.32 1485.58q0-.91.08-1.19.09-.27.49-.69l9.71-10.82q5.31-5.98 5.31-11.19 0-3.38-1.78-5.8-1.75-2.42-4.99-2.42-2.22 0-4.1 1.35-1.88 1.36-2.74 3.78.15-.05.66-.05 1.26 0 1.96.79.71.8.71 1.86 0 1.36-.89 2.02-.86.65-1.73.65-.34 0-.81-.08-.45-.07-1.16-.76-.72-.72-.72-1.98 0-3.53 2.67-6.35 2.69-2.82 6.79-2.82 4.65 0 7.69 2.77 3.06 2.74 3.06 7.04 0 1.51-.47 2.89-.45 1.36-1.06 2.42-.6 1.07-2.23 2.77-1.63 1.7-2.94 2.91-1.31 1.22-4.24 3.78l-5.37 5.22h9.12q4.45 0 4.79-.4.5-.71 1.11-4.49h1.29l-1.43 8.79z" fill-rule="evenodd"/><path clip-path="url(#a)" d="m2049.92 1469.4q0-7.44 1.88-11.49 2.62-6.03 8.79-6.03 1.31 0 2.67.38 1.39.34 3.12 1.7 1.75 1.36 2.81 3.58 2.03 4.3 2.03 11.86 0 7.39-1.88 11.41-2.74 5.88-8.79 5.88-2.28 0-4.6-1.16-2.3-1.16-3.75-3.95-2.28-4.18-2.28-12.18m4.2-.62q0 7.63.55 10.67.61 3.29 2.29 4.72 1.71 1.41 3.59 1.41 2.02 0 3.7-1.51 1.71-1.53 2.22-4.81.57-3.24.55-10.48 0-7.04-.5-9.86-.66-3.28-2.44-4.59-1.76-1.33-3.53-1.33-.67 0-1.39.19-.69.2-1.7.77-1.02.57-1.81 1.98-.76 1.4-1.13 3.53-.4 2.74-.4 9.31z" fill-rule="evenodd"/><path clip-path="url(#a)" d="m2078.31 1484.76q-.77-.81-.77-1.87 0-1.07.77-1.83.76-.79 1.92-.79 1.12 0 1.86.74.76.72.76 1.9 0 1.16-.81 1.93-.79.74-1.81.74-1.16 0-1.92-.82z" fill-rule="evenodd"/><path clip-path="url(#a)" d="m2089.28 1469.4q0-7.44 1.87-11.49 2.62-6.03 8.8-6.03 1.31 0 2.67.38 1.38.34 3.11 1.7 1.75 1.36 2.81 3.58 2.03 4.3 2.03 11.86 0 7.39-1.88 11.41-2.74 5.88-8.79 5.88-2.27 0-4.6-1.16-2.29-1.16-3.75-3.95-2.27-4.18-2.27-12.18m4.2-.62q0 7.63.54 10.67.62 3.29 2.3 4.72 1.7 1.41 3.58 1.41 2.02 0 3.7-1.51 1.71-1.53 2.23-4.81.56-3.24.54-10.48 0-7.04-.49-9.86-.67-3.28-2.45-4.59-1.75-1.33-3.53-1.33-.67 0-1.39.19-.69.2-1.7.77-1.01.57-1.8 1.98-.77 1.4-1.14 3.53-.39 2.74-.39 9.31z" fill-rule="evenodd"/><path clip-path="url(#a)" d="m2114 1477.23v-1.56l15.54-23.74q.4-.61 1.01-.59.57 0 .7.22.12.23.12 1.09v23.02h5.06v1.56h-5.06v4.4q0 1.45.59 1.92.62.47 3.24.47h1.06v1.56q-2.07-.15-6.87-.15-4.76 0-6.84.15v-1.56h1.06q2.62 0 3.24-.44.62-.47.62-1.95v-4.4zm1.44-1.56h12.32v-18.87z" fill-rule="evenodd"/><path clip-path="url(#a)" d="m1071.09 1567.13v-9.17q0-.79.04-1.06.03-.27.24-.47.2-.21.61-.21.47 0 .64.21.21.2.34.98 1.06 4.79 3.3 7.34 2.27 2.51 6.38 2.51 3.91 0 5.88-1.73 1.97-1.73 1.97-4.59 0-5.09-7.24-6.38-4.17-.85-5.91-1.39-1.73-.58-3.26-1.84-2.99-2.44-2.99-5.91 0-3.46 2.62-6.01 2.65-2.55 8.49-2.55 3.91 0 6.56 1.97.78-.61 1.19-1.12.91-.85 1.39-.85.54 0 .64.38.11.34.11 1.32v7q0 .78-.04 1.05-.03.27-.24.48-.2.17-.64.17-.78 0-.82-.65-.54-8.42-8.15-8.42-4.11 0-5.94 1.59-1.84 1.57-1.84 3.71 0 1.18.55 2.1.57.88 1.29 1.43.75.51 2.1 1.02 1.36.47 2.18.64.85.17 2.44.51 5.57 1.06 7.92 3.33 2.92 2.92 2.92 6.62 0 4.11-2.79 6.9-2.78 2.79-8.39 2.79-4.51 0-7.67-3.03-.41.41-.72.78-.3.34-.44.48-.1.13-.13.24-.04.06-.11.13-1.39 1.4-1.73 1.4-.54 0-.64-.38-.11-.34-.11-1.32z" fill-rule="evenodd"/><path clip-path="url(#a)" d="m1102.96 1564.24q-4.42-4.62-4.42-11.21 0-6.62 4.35-11.38 4.35-4.79 10.73-4.79 4.25 0 7.44 2.04 3.19 2 3.19 5.43 0 1.53-.91 2.42-.89.85-2.28.85-1.46 0-2.34-.89-.85-.91-.85-2.31 0-.61.2-1.22.21-.61.95-1.26.78-.64 2.11-.74-2.48-2.55-7.3-2.55-.07 0-.14 0-3.53 0-6.45 3.33-2.93 3.33-2.93 10.93 0 3.98.96 6.9.98 2.89 2.58 4.38 1.59 1.5 3.16 2.21 1.56.68 3.09.68 6.82 0 9.13-7.3.21-.68.89-.68.91 0 .91.68 0 .34-.27 1.22-.27.88-1.12 2.27-.85 1.4-2.07 2.62-1.19 1.19-3.33 2.07-2.1.89-4.75.89-6.12 0-10.53-4.59z" fill-rule="evenodd"/><path clip-path="url(#a)" d="m1128.97 1568.04v-2.14q3.71 0 4.56-.44.88-.47.88-2.72v-18.64q0-2.58-.92-3.23-.88-.65-4.52-.65v-2.17l9.69-.75v7.65q.98-2.99 3.05-5.3 2.11-2.35 5.51-2.35 2.24 0 3.66 1.26 1.46 1.26 1.46 2.99 0 1.53-.95 2.31-.91.75-2.03.75-1.26 0-2.14-.78-.85-.82-.85-2.21 0-.85.37-1.5.41-.68.71-.91.31-.24.51-.31-.13-.07-.74-.07-3.84 0-6.05 3.84-2.17 3.8-2.17 9.24v10.7q0 2 .81 2.65.85.64 4.48.64h1.46v2.14q-2.78-.2-8.83-.2-.85 0-2.17.03-1.33.04-3.06.11-1.73.06-2.72.06z" fill-rule="evenodd"/><path clip-path="url(#a)" d="m1156.15 1552.72q0-6.55 4.21-11.2 4.21-4.66 10.26-4.66 6.11 0 9.27 3.98 3.19 3.97 3.19 9.68 0 1.05-.27 1.25-.27.21-1.46.21h-19.43q0 7.1 2.11 10.43 2.92 4.65 7.85 4.65.67 0 1.49-.14.81-.13 2.48-.71 1.66-.61 3.12-2.21 1.46-1.59 2.31-4.11.21-.98.89-.95.91 0 .91.82 0 .61-.67 2-.65 1.36-1.91 2.99-1.25 1.63-3.7 2.85-2.41 1.23-5.33 1.23-6.12 0-10.74-4.62-4.58-4.66-4.58-11.49m5.84-2.2h16.51q0-1.46-.27-3.09-.24-1.63-.99-3.88-.71-2.27-2.41-3.7-1.7-1.43-4.21-1.43-1.12 0-2.35.48-1.18.48-2.64 1.63-1.47 1.16-2.48 3.77-1.02 2.62-1.16 6.22z" fill-rule="evenodd"/><path clip-path="url(#a)" d="m1187.02 1552.72q0-6.55 4.22-11.2 4.21-4.66 10.25-4.66 6.12 0 9.28 3.98 3.19 3.97 3.19 9.68 0 1.05-.27 1.25-.27.21-1.46.21h-19.43q0 7.1 2.1 10.43 2.93 4.65 7.85 4.65.68 0 1.5-.14.81-.13 2.48-.71 1.66-.61 3.12-2.21 1.46-1.59 2.31-4.11.2-.98.88-.95.92 0 .92.82 0 .61-.68 2-.64 1.36-1.9 2.99-1.26 1.63-3.7 2.85-2.42 1.23-5.34 1.23-6.11 0-10.73-4.62-4.59-4.66-4.59-11.49m5.85-2.2h16.5q0-1.46-.27-3.09-.23-1.63-.98-3.88-.72-2.27-2.41-3.7-1.7-1.43-4.22-1.43-1.12 0-2.34.48-1.19.48-2.65 1.63-1.46 1.16-2.48 3.77-1.02 2.62-1.15 6.22z" fill-rule="evenodd"/><path clip-path="url(#a)" d="m1218.21 1568.04v-2.14q3.7 0 4.55-.44.85-.47.85-2.72v-18.64q0-2.58-.92-3.23-.88-.65-4.48-.65v-2.17l9.78-.75v7.31q3.26-7.31 10.29-7.31 5.23 0 7.3 2.59 1.53 1.73 1.84 3.66.34 1.94.34 6.97v13.28q.07 1.46 1.19 1.8 1.12.3 4.24.3v2.14q-7.1-.2-7.81-.2-.54 0-7.85.2v-2.14q3.71 0 4.56-.44.88-.47.88-2.72v-16.2q0-3.53-1.09-5.6-1.09-2.11-4.07-2.11-3.61 0-6.49 3.03-2.89 3.02-2.89 8.11v12.77q0 2.25.85 2.72.88.44 4.55.44v2.14q-7.1-.2-7.78-.2-.54 0-7.84.2z" fill-rule="evenodd"/><path clip-path="url(#a)" d="m1279.62 1579.39q3.7 0 4.55-.48.88-.44.88-2.65v-32.57q0-2.31-.88-2.89-.85-.58-4.55-.58v-2.17l10.02-.75v4.59q4.18-4.59 9.75-4.59 5.91 0 10.22 4.59 4.32 4.58 4.32 11.14 0 6.62-4.59 11.21-4.59 4.59-10.94 4.59-3.46 0-5.81-1.77-2.31-1.8-2.75-3.13v.65 11.68q0 2.25.89 2.69.88.44 4.55.44v2.14q-7.31-.21-7.85-.21-.68 0-7.81.21zm10.22-19.26q0 1.05.14 1.43.17.37.85 1.49 2.75 4.21 7.23 4.21.04 0 .07 0 3.98 0 7-4.04 3.02-4.08 3.02-10.19 0-5.84-2.75-9.92-2.75-4.07-6.56-4.07-2.71 0-5.09 1.46-2.38 1.46-3.91 4.11z" fill-rule="evenodd"/><path clip-path="url(#a)" d="m1324.73 1564.31q-4.59-4.55-4.59-11.14 0-6.63 4.49-11.45 4.51-4.86 10.97-4.86 6.31 0 10.83 4.83 4.55 4.78 4.55 11.48 0 6.55-4.58 11.1-4.55 4.56-10.87 4.56-6.18 0-10.8-4.52m1.19-11.72q0 6.76 1.76 9.82 2.72 4.65 7.92 4.65 2.58 0 4.72-1.39 2.17-1.4 3.36-3.74 1.53-3.06 1.53-9.34 0-6.69-1.83-9.65-2.72-4.52-7.85-4.52-2.24 0-4.45 1.19-2.17 1.16-3.5 3.47-1.66 3.06-1.66 9.51z" fill-rule="evenodd"/><path clip-path="url(#a)" d="m1355.3 1567.13v-9.17q0-.79.03-1.06.04-.27.24-.47.2-.21.61-.21.48 0 .65.21.2.2.34.98 1.05 4.79 3.29 7.34 2.28 2.51 6.39 2.51 3.9 0 5.87-1.73 1.97-1.73 1.97-4.59 0-5.09-7.23-6.38-4.18-.85-5.91-1.39-1.73-.58-3.26-1.84-2.99-2.44-2.99-5.91 0-3.46 2.61-6.01 2.65-2.55 8.49-2.55 3.91 0 6.56 1.97.78-.61 1.19-1.12.92-.85 1.39-.85.55 0 .65.38.1.34.1 1.32v7q0 .78-.03 1.05-.04.27-.24.48-.21.17-.65.17-.78 0-.81-.65-.55-8.42-8.16-8.42-4.11 0-5.94 1.59-1.83 1.57-1.83 3.71 0 1.18.54 2.1.58.88 1.29 1.43.75.51 2.11 1.02 1.36.47 2.17.64.85.17 2.45.51 5.57 1.06 7.91 3.33 2.92 2.92 2.92 6.62 0 4.11-2.78 6.9-2.79 2.79-8.39 2.79-4.52 0-7.68-3.03-.41.41-.71.78-.31.34-.44.48-.11.13-.14.24-.03.06-.1.13-1.4 1.4-1.74 1.4-.54 0-.64-.38-.1-.34-.1-1.32z" fill-rule="evenodd"/><path clip-path="url(#a)" d="m1382.68 1568.04v-2.14q3.7 0 4.55-.44.85-.47.85-2.72v-18.71q0-2.58-.89-3.19-.85-.62-4.24-.62v-2.17l9.71-.75v25.51q0 2.07.75 2.58.75.51 4.14.51v2.14q-7.1-.2-7.23-.2-.95 0-7.64.2m2.92-42.86q0-1.4 1.05-2.52 1.09-1.15 2.61-1.15 1.53 0 2.62 1.05 1.09 1.02 1.09 2.65 0 1.6-1.09 2.65-1.09 1.02-2.62 1.02-1.59 0-2.64-1.12-1.02-1.12-1.02-2.58z" fill-rule="evenodd"/><path clip-path="url(#a)" d="m1400.95 1540.22v-1.52q3.19-.14 5.3-2.38 2.14-2.28 2.85-5.06.75-2.79.82-6.01h1.73v12.8h9.95v2.17h-9.95v19.33q0 7.51 4.69 7.51 2 0 3.33-2.04 1.32-2.07 1.32-5.74v-3.84h1.73v3.98q0 3.77-1.73 6.59-1.73 2.82-5.16 2.82-1.26 0-2.52-.34-1.22-.31-2.85-1.13-1.6-.84-2.62-2.88-.98-2.07-.98-5.06v-19.2z" fill-rule="evenodd"/><path clip-path="url(#a)" d="m1428.9 1568.04v-2.14q3.71 0 4.56-.44.85-.47.85-2.72v-18.71q0-2.58-.89-3.19-.85-.62-4.24-.62v-2.17l9.71-.75v25.51q0 2.07.75 2.58.75.51 4.14.51v2.14q-7.1-.2-7.23-.2-.95 0-7.65.2m2.93-42.86q0-1.4 1.05-2.52 1.09-1.15 2.61-1.15 1.53 0 2.62 1.05 1.09 1.02 1.09 2.65 0 1.6-1.09 2.65-1.09 1.02-2.62 1.02-1.59 0-2.65-1.12-1.01-1.12-1.01-2.58z" fill-rule="evenodd"/><path clip-path="url(#a)" d="m1452.38 1564.31q-4.59-4.55-4.59-11.14 0-6.63 4.48-11.45 4.52-4.86 10.98-4.86 6.31 0 10.83 4.83 4.55 4.78 4.55 11.48 0 6.55-4.58 11.1-4.55 4.56-10.87 4.56-6.18 0-10.8-4.52m1.18-11.72q0 6.76 1.77 9.82 2.72 4.65 7.92 4.65 2.58 0 4.72-1.39 2.17-1.4 3.36-3.74 1.53-3.06 1.53-9.34 0-6.69-1.84-9.65-2.71-4.52-7.84-4.52-2.24 0-4.45 1.19-2.18 1.16-3.5 3.47-1.67 3.06-1.67 9.51z" fill-rule="evenodd"/><path clip-path="url(#a)" d="m1482.88 1568.04v-2.14q3.7 0 4.55-.44.85-.47.85-2.72v-18.64q0-2.58-.92-3.23-.88-.65-4.48-.65v-2.17l9.78-.75v7.31q3.26-7.31 10.29-7.31 5.23 0 7.31 2.59 1.52 1.73 1.83 3.66.34 1.94.34 6.97v13.28q.07 1.46 1.19 1.8 1.12.3 4.24.3v2.14q-7.09-.2-7.81-.2-.54 0-7.84.2v-2.14q3.7 0 4.55-.44.88-.47.88-2.72v-16.2q0-3.53-1.09-5.6-1.08-2.11-4.07-2.11-3.6 0-6.49 3.03-2.89 3.02-2.89 8.11v12.77q0 2.25.85 2.72.88.44 4.55.44v2.14q-7.1-.2-7.78-.2-.54 0-7.84.2z" fill-rule="evenodd"/><path d="m236.203 1423.18v-1299.708" style="stroke:#000;stroke-linecap:round;stroke-linejoin:round;stroke-width:4;fill:none;clip-path:url(#a)"/><path d="m2352.76 1423.18v-1299.708" style="stroke:#000;stroke-linecap:round;stroke-linejoin:round;stroke-width:4;fill:none;clip-path:url(#a)"/><path d="m236.203 1386.4h18.898" style="stroke:#000;stroke-linecap:round;stroke-linejoin:round;stroke-width:4;fill:none;clip-path:url(#a)"/><path d="m236.203 1079.86h18.898" style="stroke:#000;stroke-linecap:round;stroke-linejoin:round;stroke-width:4;fill:none;clip-path:url(#a)"/><path d="m236.203 773.32h18.898" style="stroke:#000;stroke-linecap:round;stroke-linejoin:round;stroke-width:4;fill:none;clip-path:url(#a)"/><path d="m236.203 466.782h18.898" style="stroke:#000;stroke-linecap:round;stroke-linejoin:round;stroke-width:4;fill:none;clip-path:url(#a)"/><path d="m236.203 160.245h18.898" style="stroke:#000;stroke-linecap:round;stroke-linejoin:round;stroke-width:4;fill:none;clip-path:url(#a)"/><g fill-rule="evenodd"><path clip-path="url(#a)" d="m114.26 1387.5q0-7.44 1.878-11.49 2.618-6.03 8.794-6.03 1.309 0 2.668.37 1.383.35 3.113 1.71 1.754 1.35 2.816 3.58 2.025 4.3 2.025 11.86 0 7.38-1.877 11.41-2.742 5.88-8.794 5.88-2.273 0-4.595-1.16-2.298-1.16-3.755-3.96-2.273-4.17-2.273-12.17m4.2-.62q0 7.63.543 10.67.618 3.28 2.298 4.72 1.704 1.41 3.582 1.41 2.025 0 3.705-1.51 1.705-1.53 2.223-4.82.569-3.23.544-10.47 0-7.04-.494-9.86-.667-3.28-2.446-4.59-1.754-1.34-3.532-1.34-.667 0-1.384.2-.691.2-1.704.77-1.013.56-1.804 1.97-.765 1.41-1.136 3.53-.395 2.75-.395 9.32z"/><path clip-path="url(#a)" d="m142.644 1402.86q-.765-.81-.765-1.88 0-1.06.765-1.82.766-.8 1.927-.8 1.112 0 1.853.75.766.71.766 1.9 0 1.16-.815 1.92-.791.75-1.804.75-1.161 0-1.927-.82z"/><path clip-path="url(#a)" d="m153.613 1387.5q0-7.44 1.877-11.49 2.619-6.03 8.794-6.03 1.31 0 2.668.37 1.384.35 3.113 1.71 1.754 1.35 2.816 3.58 2.026 4.3 2.026 11.86 0 7.38-1.878 11.41-2.742 5.88-8.794 5.88-2.273 0-4.595-1.16-2.297-1.16-3.755-3.96-2.272-4.17-2.272-12.17m4.199-.62q0 7.63.544 10.67.617 3.28 2.297 4.72 1.705 1.41 3.582 1.41 2.026 0 3.706-1.51 1.704-1.53 2.223-4.82.568-3.23.543-10.47 0-7.04-.494-9.86-.667-3.28-2.445-4.59-1.754-1.34-3.533-1.34-.667 0-1.383.2-.692.2-1.705.77-1.013.56-1.803 1.97-.766 1.41-1.137 3.53-.395 2.75-.395 9.32z"/><path clip-path="url(#a)" d="m178.909 1387.5q0-7.44 1.877-11.49 2.619-6.03 8.795-6.03 1.309 0 2.668.37 1.383.35 3.112 1.71 1.754 1.35 2.816 3.58 2.026 4.3 2.026 11.86 0 7.38-1.877 11.41-2.742 5.88-8.795 5.88-2.272 0-4.595-1.16-2.297-1.16-3.754-3.96-2.273-4.17-2.273-12.17m4.199-.62q0 7.63.544 10.67.617 3.28 2.297 4.72 1.705 1.41 3.582 1.41 2.026 0 3.706-1.51 1.704-1.53 2.223-4.82.568-3.23.544-10.47 0-7.04-.494-9.86-.667-3.28-2.446-4.59-1.754-1.34-3.533-1.34-.667 0-1.383.2-.692.2-1.705.77-1.012.56-1.803 1.97-.766 1.41-1.136 3.53-.396 2.75-.396 9.32z"/><path clip-path="url(#a)" d="m114.804 1080.96q0-7.44 1.877-11.49 2.619-6.03 8.794-6.03 1.31 0 2.668.37 1.384.35 3.113 1.71 1.754 1.36 2.816 3.58 2.026 4.3 2.026 11.86 0 7.38-1.878 11.41-2.742 5.88-8.794 5.88-2.273 0-4.595-1.16-2.297-1.16-3.755-3.95-2.272-4.18-2.272-12.18m4.199-.62q0 7.63.544 10.67.617 3.29 2.297 4.72 1.705 1.41 3.582 1.41 2.026 0 3.706-1.51 1.704-1.53 2.223-4.82.568-3.23.543-10.47 0-7.04-.494-9.86-.667-3.28-2.445-4.59-1.754-1.34-3.533-1.34-.667 0-1.383.2-.692.2-1.705.77-1.013.57-1.803 1.97-.766 1.41-1.137 3.54-.395 2.74-.395 9.31z"/><path clip-path="url(#a)" d="m143.188 1096.32q-.766-.81-.766-1.87 0-1.07.766-1.83.766-.79 1.927-.79 1.111 0 1.852.74.766.71.766 1.9 0 1.16-.815 1.93-.791.74-1.803.74-1.161 0-1.927-.82z"/><path clip-path="url(#a)" d="m154.7 1097.14q0-.92.074-1.19.098-.27.494-.69l9.708-10.82q5.311-5.98 5.311-11.19 0-3.38-1.778-5.81-1.754-2.42-4.99-2.42-2.224 0-4.101 1.36-1.878 1.36-2.742 3.78.148-.05.667-.05 1.26 0 1.951.79.717.79.717 1.86 0 1.35-.89 2.02-.864.64-1.729.64-.346 0-.815-.07-.445-.07-1.161-.77-.716-.71-.716-1.97 0-3.53 2.668-6.35 2.692-2.82 6.793-2.82 4.644 0 7.683 2.77 3.063 2.74 3.063 7.04 0 1.51-.469 2.89-.445 1.36-1.063 2.42-.593 1.06-2.223 2.77-1.63 1.7-2.94 2.91-1.309 1.21-4.249 3.78l-5.36 5.21h9.115q4.447 0 4.793-.39.494-.72 1.111-4.5h1.285l-1.433 8.8z"/><path clip-path="url(#a)" d="m179.996 1088.99q0-1.51.815-2.08.815-.59 1.68-.59 1.161 0 1.828.74.692.72.692 1.73 0 1.01-.692 1.75-.667.72-1.828.72-.568 0-.865-.1.667 2.32 2.693 4 2.05 1.68 4.743 1.68 3.384 0 5.41-3.28 1.21-2.13 1.21-6.95 0-4.24-.914-6.37-1.408-3.24-4.298-3.24-4.101 0-6.522 3.54-.296.44-.642.47-.494 0-.618-.27-.098-.3-.098-1.07v-14.97q0-1.21.494-1.21.197 0 .617.15 3.187 1.41 6.72 1.43 3.631 0 6.892-1.48.247-.15.395-.15.494 0 .519.57 0 .2-.42.79-.395.57-1.26 1.34-.865.74-1.976 1.45-1.112.72-2.742 1.21-1.606.47-3.385.47-2.124 0-4.298-.66v9.85q2.619-2.57 6.423-2.57 4.051 0 6.843 3.26 2.791 3.26 2.791 7.81 0 4.77-3.31 8.03-3.286 3.26-7.732 3.26-4.052 0-6.621-2.89-2.544-2.89-2.544-6.37z"/><path clip-path="url(#a)" d="m114.26 774.42q0-7.436 1.878-11.487 2.618-6.028 8.794-6.028 1.309 0 2.668.37 1.383.346 3.113 1.705 1.754 1.359 2.816 3.582 2.025 4.298 2.025 11.858 0 7.386-1.877 11.413-2.742 5.879-8.794 5.879-2.273 0-4.595-1.161-2.298-1.161-3.755-3.953-2.273-4.175-2.273-12.178m4.2-.618q0 7.633.543 10.672.618 3.285 2.298 4.718 1.704 1.408 3.582 1.408 2.025 0 3.705-1.507 1.705-1.531 2.223-4.817.569-3.236.544-10.474 0-7.04-.494-9.857-.667-3.285-2.446-4.594-1.754-1.334-3.532-1.334-.667 0-1.384.197-.691.198-1.704.766-1.013.568-1.804 1.976-.765 1.408-1.136 3.533-.395 2.742-.395 9.313z"/><path clip-path="url(#a)" d="m142.644 789.785q-.765-.815-.765-1.877 0-1.063.765-1.828.766-.791 1.927-.791 1.112 0 1.853.741.766.717.766 1.902 0 1.161-.815 1.927-.791.741-1.804.741-1.161 0-1.927-.815z"/><path clip-path="url(#a)" d="m154.156 782.448q0-1.507.815-2.075.816-.593 1.68-.593 1.161 0 1.828.741.692.717.692 1.73 0 1.012-.692 1.753-.667.717-1.828.717-.568 0-.864-.099.666 2.322 2.692 4.002 2.051 1.68 4.743 1.68 3.385 0 5.41-3.286 1.211-2.124 1.211-6.941 0-4.249-.914-6.374-1.408-3.236-4.299-3.236-4.1 0-6.521 3.533-.297.444-.643.469-.494 0-.617-.272-.099-.296-.099-1.062v-14.97q0-1.211.494-1.211.198 0 .618.149 3.186 1.408 6.719 1.432 3.631 0 6.892-1.482.247-.148.395-.148.494 0 .519.568 0 .198-.42.791-.395.568-1.26 1.334-.864.741-1.976 1.457-1.112.716-2.742 1.211-1.606.469-3.384.469-2.125 0-4.299-.667v9.857q2.619-2.57 6.423-2.57 4.051 0 6.843 3.261 2.791 3.261 2.791 7.806 0 4.768-3.31 8.029-3.285 3.261-7.732 3.261-4.051 0-6.62-2.89-2.545-2.891-2.545-6.374z"/><path clip-path="url(#a)" d="m178.909 774.42q0-7.436 1.877-11.487 2.619-6.028 8.795-6.028 1.309 0 2.668.37 1.383.346 3.112 1.705 1.754 1.359 2.816 3.582 2.026 4.298 2.026 11.858 0 7.386-1.877 11.413-2.742 5.879-8.795 5.879-2.272 0-4.595-1.161-2.297-1.161-3.754-3.953-2.273-4.175-2.273-12.178m4.199-.618q0 7.633.544 10.672.617 3.285 2.297 4.718 1.705 1.408 3.582 1.408 2.026 0 3.706-1.507 1.704-1.531 2.223-4.817.568-3.236.544-10.474 0-7.04-.494-9.857-.667-3.285-2.446-4.594-1.754-1.334-3.533-1.334-.667 0-1.383.197-.692.198-1.705.766-1.012.568-1.803 1.976-.766 1.408-1.136 3.533-.396 2.742-.396 9.313z"/><path clip-path="url(#a)" d="m114.804 467.882q0-7.436 1.877-11.487 2.619-6.028 8.794-6.028 1.31 0 2.668.371 1.384.346 3.113 1.704 1.754 1.359 2.816 3.582 2.026 4.299 2.026 11.858 0 7.386-1.878 11.413-2.742 5.879-8.794 5.879-2.273 0-4.595-1.161-2.297-1.161-3.755-3.952-2.272-4.175-2.272-12.179m4.199-.618q0 7.634.544 10.672.617 3.286 2.297 4.718 1.705 1.408 3.582 1.408 2.026 0 3.706-1.506 1.704-1.532 2.223-4.818.568-3.236.543-10.474 0-7.04-.494-9.856-.667-3.286-2.445-4.595-1.754-1.334-3.533-1.334-.667 0-1.383.197-.692.198-1.705.766-1.013.568-1.803 1.976-.766 1.409-1.137 3.533-.395 2.742-.395 9.313z"/><path clip-path="url(#a)" d="m143.188 483.247q-.766-.815-.766-1.877 0-1.062.766-1.828.766-.791 1.927-.791 1.111 0 1.852.741.766.717.766 1.903 0 1.161-.815 1.926-.791.741-1.803.741-1.161 0-1.927-.815z"/><path clip-path="url(#a)" d="m155.021 460.273 1.655-10.4h1.26q.148.618.395.889.272.272 1.704.494 1.458.223 4.398.223h12.277q0 1.161-.444 1.778l-6.843 9.61q-2.174 3.039-3.138 8.646-.568 3.755-.543 8.301v2.569q0 2.791-2.347 2.791-2.322 0-2.322-2.791 0-9.659 6.225-19.022.667-.963 3.113-4.397 2.47-3.434 2.569-3.582h-10.474q-4.595 0-4.966.296-.494.445-1.259 4.595z"/><path clip-path="url(#a)" d="m179.996 475.91q0-1.507.815-2.075.815-.593 1.68-.593 1.161 0 1.828.742.692.716.692 1.729 0 1.013-.692 1.754-.667.716-1.828.716-.568 0-.865-.099.667 2.322 2.693 4.002 2.05 1.68 4.743 1.68 3.384 0 5.41-3.286 1.21-2.124 1.21-6.941 0-4.249-.914-6.374-1.408-3.236-4.298-3.236-4.101 0-6.522 3.533-.296.444-.642.469-.494 0-.618-.272-.098-.296-.098-1.062v-14.97q0-1.21.494-1.21.197 0 .617.148 3.187 1.408 6.72 1.433 3.631 0 6.892-1.483.247-.148.395-.148.494 0 .519.568 0 .198-.42.791-.395.568-1.26 1.334-.865.741-1.976 1.457-1.112.717-2.742 1.211-1.606.469-3.385.469-2.124 0-4.298-.667v9.857q2.619-2.569 6.423-2.569 4.051 0 6.843 3.26 2.791 3.261 2.791 7.807 0 4.767-3.31 8.028-3.286 3.261-7.732 3.261-4.052 0-6.621-2.89-2.544-2.89-2.544-6.374z"/><path clip-path="url(#a)" d="m116.78 148.646v-1.581q6.077 0 9.214-3.236.865 0 1.013.198.148.198.148 1.112v28.384q0 1.507.741 1.976.742.469 3.978.469h1.605v1.557q-1.778-.149-8.201-.149-6.423 0-8.177.149v-1.557h1.606q3.186 0 3.952-.444.766-.47.766-2.001v-26.211q-2.643 1.334-6.645 1.334z"/><path clip-path="url(#a)" d="m142.644 176.709q-.765-.815-.765-1.877 0-1.062.765-1.828.766-.791 1.927-.791 1.112 0 1.853.742.766.716.766 1.902 0 1.161-.815 1.927-.791.741-1.804.741-1.161 0-1.927-.816z"/><path clip-path="url(#a)" d="m153.613 161.344q0-7.436 1.877-11.487 2.619-6.028 8.794-6.028 1.31 0 2.668.371 1.384.346 3.113 1.704 1.754 1.359 2.816 3.582 2.026 4.299 2.026 11.858 0 7.386-1.878 11.413-2.742 5.879-8.794 5.879-2.273 0-4.595-1.161-2.297-1.161-3.755-3.952-2.272-4.175-2.272-12.179m4.199-.618q0 7.634.544 10.672.617 3.286 2.297 4.719 1.705 1.408 3.582 1.408 2.026 0 3.706-1.507 1.704-1.532 2.223-4.817.568-3.236.543-10.475 0-7.04-.494-9.856-.667-3.286-2.445-4.595-1.754-1.334-3.533-1.334-.667 0-1.383.198-.692.197-1.705.765-1.013.569-1.803 1.977-.766 1.408-1.137 3.532-.395 2.742-.395 9.313z"/><path clip-path="url(#a)" d="m178.909 161.344q0-7.436 1.877-11.487 2.619-6.028 8.795-6.028 1.309 0 2.668.371 1.383.346 3.112 1.704 1.754 1.359 2.816 3.582 2.026 4.299 2.026 11.858 0 7.386-1.877 11.413-2.742 5.879-8.795 5.879-2.272 0-4.595-1.161-2.297-1.161-3.754-3.952-2.273-4.175-2.273-12.179m4.199-.618q0 7.634.544 10.672.617 3.286 2.297 4.719 1.705 1.408 3.582 1.408 2.026 0 3.706-1.507 1.704-1.532 2.223-4.817.568-3.236.544-10.475 0-7.04-.494-9.856-.667-3.286-2.446-4.595-1.754-1.334-3.533-1.334-.667 0-1.383.198-.692.197-1.705.765-1.012.569-1.803 1.977-.766 1.408-1.136 3.532-.396 2.742-.396 9.313z"/><path clip-path="url(#a)" d="m64.0042 904.949h-2.14v-1.835q0-3.906-.6114-4.789-.6454-.917-2.6834-.917h-36.6505q-2.0041 0-2.6155.917-.6453.917-.6453 4.789v1.835h-2.1739q.2038-2.446.2038-10.666 0-8.152-.2038-10.564h2.1739v1.8q0 3.907.6453 4.824.6114.883 2.6155.883h36.6505q2.0041 0 2.6495-.883.6453-.917.6453-4.824v-1.8h2.14q-.2038 2.446-.2038 10.632 0 8.152.2038 10.598z"/><path clip-path="url(#a)" d="m64.0042 879.541h-2.14q0-3.702-.4415-4.551-.4756-.85-2.7174-.85h-18.648q-2.5815 0-3.2268.918-.6454.883-.6454 4.483h-2.1739l-.7473-9.782h7.3029q-7.3029-3.261-7.3029-10.292 0-5.231 2.5815-7.303 1.7323-1.529 3.6685-1.835 1.9361-.339 6.9632-.339h13.2812q1.4606-.068 1.8002-1.189.3057-1.121.3057-4.246h2.14q-.2038 7.099-.2038 7.812 0 .544.2038 7.847h-2.14q0-3.703-.4415-4.552-.4756-.883-2.7174-.883h-16.2023q-3.5326 0-5.6046 1.087-2.106 1.087-2.106 4.076 0 3.601 3.0231 6.488 3.0231 2.887 8.1181 2.887h12.7717q2.2418 0 2.7174-.849.4415-.883.4415-4.552h2.14q-.2038 7.099-.2038 7.779 0 .543.2038 7.846z"/><path clip-path="url(#a)" d="m36.1851 843.808h-1.5285q-.1359-3.193-2.3777-5.299-2.2758-2.14-5.0611-2.853-2.7853-.748-6.0122-.816v-1.732h12.8056v-9.952h2.1739v9.952h19.3273q7.5067 0 7.5067-4.687 0-2.004-2.038-3.329-2.072-1.325-5.7405-1.325h-3.8382v-1.732h3.9741q3.7704 0 6.5896 1.732 2.8193 1.732 2.8193 5.163 0 1.257-.3397 2.514-.3057 1.223-1.1209 2.853-.8492 1.596-2.8872 2.615-2.072.985-5.0611.985h-19.1914z"/><path clip-path="url(#a)" d="m48.685 816.226q-6.5557 0-11.2092-4.211-4.6535-4.212-4.6535-10.259 0-6.114 3.9742-9.273 3.9741-3.192 9.6806-3.192 1.053 0 1.2568.271.2038.272.2038 1.461v19.429q7.0991 0 10.4279-2.106 4.6535-2.921 4.6535-7.846 0-.68-.1359-1.495-.1358-.815-.7133-2.479-.6114-1.665-2.2078-3.125-1.5965-1.461-4.1101-2.31-.985-.204-.951-.883 0-.917.8152-.917.6114 0 2.004.679 1.3587.645 2.9891 1.902 1.6305 1.257 2.8533 3.702 1.2228 2.412 1.2228 5.333 0 6.114-4.6195 10.734-4.6535 4.585-11.4809 4.585m-2.2079-5.842v-16.508q-1.4606 0-3.091.272-1.6304.238-3.8722.985-2.2758.713-3.7025 2.412-1.4266 1.698-1.4266 4.211 0 1.121.4756 2.344.4755 1.189 1.6304 2.65 1.1549 1.46 3.7703 2.479 2.6155 1.019 6.216 1.155z"/><path clip-path="url(#a)" d="m64.0042 785.045h-2.14q0-3.703-.4415-4.552-.4756-.849-2.7174-.849h-18.648q-2.5815 0-3.2268.917-.6454.883-.6454 4.484h-2.1739l-.7473-9.783h7.3029q-7.3029-3.261-7.3029-10.292 0-5.231 2.5815-7.303 1.7323-1.528 3.6685-1.834 1.9361-.34 6.9632-.34h13.2812q1.4606-.068 1.8002-1.189.3057-1.121.3057-4.245h2.14q-.2038 7.099-.2038 7.812 0 .543.2038 7.846h-2.14q0-3.702-.4415-4.551-.4756-.883-2.7174-.883h-16.2023q-3.5326 0-5.6046 1.087-2.106 1.087-2.106 4.076 0 3.6 3.0231 6.487 3.0231 2.888 8.1181 2.888h12.7717q2.2418 0 2.7174-.85.4415-.883.4415-4.551h2.14q-.2038 7.099-.2038 7.778 0 .544.2038 7.847z"/><path clip-path="url(#a)" d="m63.087 746.39h-9.1711q-.7812 0-1.053-.034-.2717-.034-.4755-.238-.2038-.203-.2038-.611 0-.476.2038-.645.2038-.204.985-.34 4.7894-1.053 7.3369-3.295 2.5136-2.276 2.5136-6.386 0-3.906-1.7323-5.876-1.7323-1.97-4.5856-1.97-5.095 0-6.3858 7.235-.8492 4.178-1.3926 5.91-.5775 1.732-1.8343 3.261-2.4456 2.989-5.9102 2.989-3.4647 0-6.0122-2.615-2.5476-2.65-2.5476-8.492 0-3.906 1.9701-6.556-.6114-.781-1.1209-1.189-.8492-.917-.8492-1.392 0-.544.3737-.646.3397-.102 1.3247-.102h6.9972q.7813 0 1.053.034.2717.034.4755.238.1699.204.1699.645 0 .782-.6454.816-8.4238.543-8.4238 8.152 0 4.11 1.5964 5.944 1.5625 1.834 3.7024 1.834 1.1889 0 2.106-.543.8831-.578 1.4266-1.291.5095-.747 1.019-2.106.4756-1.359.6454-2.174.1698-.849.5095-2.445 1.053-5.571 3.3288-7.915 2.9212-2.921 6.6236-2.921 4.11 0 6.8953 2.785 2.7853 2.786 2.7853 8.39 0 4.518-3.0231 7.677.4076.407.7813.713.3396.306.4755.442.1359.102.2378.136.0679.034.1358.101 1.3927 1.393 1.3927 1.733 0 .543-.3736.645-.3397.102-1.3248.102z"/><path clip-path="url(#a)" d="m64.0042 719.013h-2.14q0-3.703-.4415-4.552-.4756-.849-2.7174-.849h-18.7159q-2.5815 0-3.1929.883-.6114.849-.6114 4.246h-2.1739l-.7473-9.715h25.5093q2.072 0 2.5815-.747.5095-.747.5095-4.144h2.14q-.2038 7.099-.2038 7.235 0 .951.2038 7.643m-42.8665-2.922q-1.3927 0-2.5136-1.053-1.1549-1.087-1.1549-2.615 0-1.529 1.053-2.616 1.019-1.086 2.6494-1.086 1.5965 0 2.6495 1.086 1.019 1.087 1.019 2.616 0 1.596-1.1209 2.649-1.121 1.019-2.5815 1.019z"/><path clip-path="url(#a)" d="m36.1851 700.738h-1.5285q-.1359-3.193-2.3777-5.299-2.2758-2.14-5.0611-2.853-2.7853-.747-6.0122-.815v-1.732h12.8056v-9.953h2.1739v9.953h19.3273q7.5067 0 7.5067-4.688 0-2.004-2.038-3.329-2.072-1.324-5.7405-1.324h-3.8382v-1.733h3.9741q3.7704 0 6.5896 1.733 2.8193 1.732 2.8193 5.163 0 1.256-.3397 2.513-.3057 1.223-1.1209 2.853-.8492 1.597-2.8872 2.616-2.072.985-5.0611.985h-19.1914z"/><path clip-path="url(#a)" d="m72.6318 675.704q-1.4606 0-2.2418-.849-.7473-.883-.7473-2.072 0-1.256.7812-2.072.8153-.849 2.14-.849 2.5815 0 2.9211 2.718 1.2568-1.325 1.2568-3.261 0-2.072-1.5285-3.737-1.5285-1.698-2.9891-2.411-1.4606-.748-4.11-1.801-2.072-.985-4.11-1.732l-25.4074 10.428q-1.6644.679-2.0381 1.732-.3736 1.053-.3736 3.906h-2.1739q.2038-3.124.2038-6.759 0-2.14-.2038-7.575h2.1739q0 3.907 1.8002 3.907.2038 0 1.2568-.408l18.7159-7.745-17.1194-7.031q-.9851-.407-1.6644-.407-2.8532 0-2.9891 3.261h-2.1739q.2038-4.586.2038-6.047 0-2.853-.2038-5.197h2.1739q0 4.654 4.4497 6.454l29.6872 12.262q7.9144 3.329 7.9483 8.9 0 2.649-1.6304 4.517-1.6304 1.868-4.0081 1.868z"/><path clip-path="url(#a)" d="m837.399 72.576v-2.7235h2.119q4.798 0 5.879-.7782 1.124-.8214 1.124-3.4152v-46.6462q0-2.5506-1.124-3.3287-1.124-.8214-5.879-.8214h-2.119v-2.7668h32.38q11.327 0 19.195 9.0353 7.911 9.0352 7.911 21.7019 0 12.4072-7.954 21.0966-7.912 8.6462-19.152 8.6462zm16.731-6.2685q0 2.2913.648 2.9397.649.6053 3.675.6053h8.949q5.836 0 9.77-2.3777 3.934-2.421 5.966-5.1877 4.885-6.6576 4.885-19.4539 0-13.4448-4.583-19.7566-5.922-8.2138-16.125-8.2138h-8.862q-3.026 0-3.675.6052-.648.6052-.648 2.9397z"/><path clip-path="url(#a)" d="m910.114 67.8206q-5.836-5.7929-5.836-14.1797 0-8.43 5.706-14.5688 5.75-6.182 13.964-6.182 8.041 0 13.79 6.1387 5.793 6.0956 5.793 14.6121 0 8.3435-5.836 14.1365-5.793 5.7929-13.834 5.7929-7.868 0-13.747-5.7497m1.513-14.9147q0 8.603 2.248 12.4938 3.458 5.9226 10.073 5.9226 3.285 0 6.009-1.7725 2.767-1.7724 4.28-4.7554 1.945-3.8907 1.945-11.8885 0-8.5164-2.334-12.2775-3.459-5.7497-9.987-5.7497-2.853 0-5.663 1.5131-2.767 1.4698-4.453 4.4095-2.118 3.8908-2.118 12.1046z"/><path clip-path="url(#a)" d="m948.935 37.1699v-2.7668l13.013-.951v29.397q0 2.1183.173 3.372.172 1.2104.864 2.637.735 1.4267 2.378 2.0751 1.686.6485 4.366.6485 4.799 0 7.738-3.934 2.983-3.934 2.983-9.7702v-15.7793q0-3.2855-1.167-4.1069-1.167-.8214-5.75-.8214v-2.7668l13.013-.951v31.4288q0 3.2856 1.124 4.1502 1.167.8214 5.793.8214v2.7235l-12.753.9943v-7.9977q-3.718 7.9545-11.413 7.9977-3.891 0-6.571-.9943-2.637-.9943-3.977-2.2048-1.341-1.2537-2.076-3.6314-.691-2.3777-.778-3.8475-.086-1.4699-.086-4.3231v-13.2719q0-6.0091-.865-7.0466-.864-1.0808-6.009-1.0808z"/><path clip-path="url(#a)" d="m997.656 14.8628v-2.7668l12.754-.9511v28.0569q5.14-5.7497 12.15-5.7497 7.61 0 13.18 5.8361 5.58 5.8362 5.58 14.1798 0 8.43-5.84 14.2661-5.83 5.8362-13.92 5.8362-7.35 0-11.58-6.4846-3.12 5.4038-3.2 5.4903h-2.21v-52.7849q0-3.2856-1.16-4.1069-1.17-.8214-5.754-.8214m13.014 47.6404q0 1.8589 1.25 3.7179 3.5 5.3606 9.21 5.3606.04 0 .09 0 6.18 0 10.03-5.6633 2.72-4.2366 2.72-12.5369 0-8.2139-2.55-12.3208-3.55-5.6633-9.3-5.6633-6.48 0-10.46 5.6633-.99 1.4266-.99 3.1991z"/><path clip-path="url(#a)" d="m1047.24 72.576v-2.7235q4.71 0 5.8-.562 1.08-.6053 1.08-3.4585v-46.0409q0-3.2856-1.17-4.1069-1.13-.8214-5.71-.8214v-2.7668l12.71-.9511v54.6871q0 2.8532 1.13 3.4585 1.12.562 5.79.562v2.7235q-1.08 0-3.33-.0865-2.25-.0864-3.89-.1297-1.64-.0432-2.59-.0432-1.04 0-9.82.2594z"/><path clip-path="url(#a)" d="m1071.28 53.0789q0-8.3436 5.36-14.2662 5.36-5.9226 13.05-5.9226 7.79 0 11.81 5.058 4.06 5.058 4.06 12.3208 0 1.3401-.35 1.5995-.34.2594-1.85.2594h-24.73q0 9.0352 2.68 13.2719 3.72 5.9226 9.98 5.9226.87 0 1.91-.1729 1.03-.1729 3.15-.9079 2.12-.7781 3.98-2.81 1.86-2.0318 2.94-5.2309.26-1.2537 1.12-1.2105 1.17 0 1.17 1.0376 0 .7781-.86 2.5506-.83 1.7292-2.42 3.8043-1.6 2.0751-4.72 3.6314-3.07 1.5563-6.78 1.5563-7.79 0-13.67-5.8794-5.83-5.9226-5.83-14.612m7.43-2.81h21.01q0-1.859-.34-3.934-.3-2.0751-1.26-4.9284-.9-2.8964-3.06-4.7121-2.17-1.8157-5.37-1.8157-1.42 0-2.98.6052-1.51.6052-3.37 2.0751-1.86 1.4698-3.16 4.7986-1.29 3.3288-1.47 7.9113z"/><path clip-path="url(#a)" d="m1108.98 56.105v-5.2309h23.56v5.2309z"/><path clip-path="url(#a)" d="m1142.52 72.4031v-17.7247q0-.9943.05-1.3401.04-.3459.3-.6053.26-.2594.78-.2594.99 0 1.08.9079.26 8.7759 5.49 13.6177 5.14 4.7986 13.96 4.7986 5.32 0 8.6-3.8043 3.29-3.8475 3.29-8.8623 0-4.7986-2.77-8.1706-1.16-1.5131-2.63-2.4642-1.43-.9943-2.34-1.2969-.86-.3026-2.55-.735-10.98-2.637-11.67-2.9397-5.23-1.7724-8.43-6.2252-3.16-4.496-3.16-9.9863 0-7.0899 4.97-12.1047 5.02-5.058 12.28-5.058 3.63 0 6.66 1.1672 3.07 1.124 4.32 2.1616 1.26 1.0375 3.2 2.8965l3.07-5.0581q.69-1.1672 1.34-1.1672.69 0 .82.4323.18.3891.18 1.686v17.8111q0 .9944-.05 1.3402-.04.3459-.34.562-.26.2162-.78.2162-.87 0-1.08-1.0376-2.47-18.5028-17.25-18.5028-5.06 0-8.39 3.4152-3.28 3.372-3.28 8.1707 0 3.8908 2.42 7.0898 2.42 3.1559 6.53 4.1502l11.32 2.7236q5.66 1.3401 9.47 6.3549 3.8 5.0148 3.8 11.5426 0 7.5222-4.92 12.9693-4.89 5.4471-12.54 5.4471-5.49 0-9.73-1.8157-4.24-1.8157-6.53-4.3663-1.77 2.9397-2.94 4.5824l-.26.4324q-.69 1.1672-1.34 1.1672-.69 0-.82-.4323-.13-.4323-.13-1.686z"/><path clip-path="url(#a)" d="m1189.6 72.576v-2.7235q4.71 0 5.79-.562 1.09-.6053 1.09-3.4585v-46.0409q0-3.2856-1.17-4.1069-1.13-.8214-5.71-.8214v-2.7668l12.71-.9511v54.6871q0 2.8532 1.13 3.4585 1.12.562 5.79.562v2.7235q-1.08 0-3.33-.0865-2.25-.0864-3.89-.1297-1.64-.0432-2.6-.0432-1.03 0-9.81.2594z"/><path clip-path="url(#a)" d="m1214.11 72.576v-2.7235q4.72 0 5.8-.562 1.08-.6053 1.08-3.4585v-23.8202q0-3.2856-1.13-4.0637-1.08-.7782-5.4-.7782v-2.7668l12.36-.951v32.4663q0 2.6371.95 3.2856.96.6485 5.28.6485v2.7235q-9.04-.2594-9.21-.2594-1.21 0-9.73.2594m3.72-54.5574q0-1.7724 1.34-3.1991 1.38-1.4698 3.33-1.4698 1.95 0 3.33 1.3402 1.38 1.2969 1.38 3.372 0 2.0318-1.38 3.372-1.38 1.2969-3.33 1.2969-2.03 0-3.37-1.4266-1.3-1.4266-1.3-3.2856z"/><path clip-path="url(#a)" d="m1237.37 37.1699v-1.9454q4.07-.1729 6.75-3.0261 2.72-2.8965 3.63-6.4414.95-3.545 1.03-7.6519h2.21v16.298h12.67v2.7668h-12.67v24.5984q0 9.554 5.97 9.554 2.55 0 4.23-2.5938 1.69-2.6371 1.69-7.3061v-4.8851h2.2v5.0581q0 4.7986-2.2 8.3867-2.21 3.5882-6.57 3.5882-1.6 0-3.2-.4323-1.56-.3891-3.63-1.4266-2.04-1.0808-3.33-3.6746-1.26-2.6371-1.26-6.4414v-24.4255z"/><path clip-path="url(#a)" d="m1301.92 72.576v-2.7235h2.33q4.97 0 6.1-.7782 1.16-.8214 1.16-3.4152v-46.6462q0-2.5506-1.16-3.3287-1.17-.8214-6.1-.8214h-2.33v-2.7668q3.11.2594 13.57.2594 10.38 0 13.44-.2594v2.7668h-2.29q-4.97 0-6.14.8214-1.12.7781-1.12 3.3287v46.6462q0 2.5506 1.12 3.372 1.17.8214 6.14.8214h2.29v2.7235q-3.11-.2594-13.53-.2594-10.37 0-13.48.2594z"/><path clip-path="url(#a)" d="m1334.25 72.576v-2.7235q4.71 0 5.79-.562 1.09-.6053 1.09-3.4585v-23.7338q0-3.2855-1.17-4.1069-1.13-.8214-5.71-.8214v-2.7668l12.45-.951v9.2946q4.15-9.2946 13.1-9.2946 6.66 0 9.3 3.2855 1.94 2.2048 2.33 4.6689.43 2.4642.43 8.8624v16.9032q.09 1.859 1.52 2.2913 1.42.3891 5.4.3891v2.7235q-9.04-.2594-9.94-.2594-.7 0-9.99.2594v-2.7235q4.71 0 5.79-.562 1.13-.6053 1.13-3.4585v-20.6211q0-4.4961-1.39-7.1331-1.38-2.6804-5.18-2.6804-4.59 0-8.26 3.8476-3.68 3.8475-3.68 10.3322v16.2548q0 2.8532 1.09 3.4585 1.12.562 5.79.562v2.7235q-9.04-.2594-9.9-.2594-.69 0-9.99.2594z"/><path clip-path="url(#a)" d="m1379.73 37.1699v-1.9454q4.06-.1729 6.74-3.0261 2.73-2.8965 3.64-6.4414.95-3.545 1.03-7.6519h2.21v16.298h12.67v2.7668h-12.67v24.5984q0 9.554 5.96 9.554 2.56 0 4.24-2.5938 1.69-2.6371 1.69-7.3061v-4.8851h2.2v5.0581q0 4.7986-2.2 8.3867-2.21 3.5882-6.57 3.5882-1.6 0-3.2-.4323-1.56-.3891-3.63-1.4266-2.04-1.0808-3.33-3.6746-1.26-2.6371-1.26-6.4414v-24.4255z"/><path clip-path="url(#a)" d="m1414.83 53.0789q0-8.3436 5.36-14.2662 5.37-5.9226 13.06-5.9226 7.78 0 11.8 5.058 4.07 5.058 4.07 12.3208 0 1.3401-.35 1.5995-.35.2594-1.86.2594h-24.73q0 9.0352 2.68 13.2719 3.72 5.9226 9.99 5.9226.86 0 1.9-.1729 1.04-.1729 3.16-.9079 2.12-.7781 3.98-2.81 1.85-2.0318 2.94-5.2309.25-1.2537 1.12-1.2105 1.17 0 1.17 1.0376 0 .7781-.87 2.5506-.82 1.7292-2.42 3.8043-1.6 2.0751-4.71 3.6314-3.07 1.5563-6.79 1.5563-7.78 0-13.66-5.8794-5.84-5.9226-5.84-14.612m7.44-2.81h21.01q0-1.859-.35-3.934-.3-2.0751-1.25-4.9284-.91-2.8964-3.07-4.7121-2.16-1.8157-5.36-1.8157-1.43 0-2.98.6052-1.52.6052-3.37 2.0751-1.86 1.4698-3.16 4.7986-1.3 3.3288-1.47 7.9113z"/><path clip-path="url(#a)" d="m1454.13 72.576v-2.7235q4.71 0 5.79-.562 1.13-.6053 1.13-3.4585v-23.7338q0-3.2855-1.17-4.1069-1.12-.8214-5.75-.8214v-2.7668l12.32-.951v9.7269q1.26-3.8043 3.89-6.744 2.68-2.9829 7.01-2.9829 2.85 0 4.67 1.5995 1.85 1.5995 1.85 3.8043 0 1.9454-1.21 2.9397-1.16.9511-2.59.9511-1.6 0-2.72-.9943-1.08-1.0376-1.08-2.81 0-1.0808.47-1.9022.52-.8646.91-1.1672.39-.3026.65-.3891-.18-.0865-.95-.0865-4.89 0-7.7 4.8851-2.77 4.8419-2.77 11.7588v13.6178q0 2.5506 1.04 3.372 1.08.8214 5.71.8214h1.86v2.7235q-3.55-.2594-11.24-.2594-1.08 0-2.77.0432-1.69.0433-3.89.1297-2.21.0865-3.46.0865z"/><path clip-path="url(#a)" d="m1489.19 37.1699v-2.7668h6.96v-10.1592q0-6.5711 4.24-10.3322 4.28-3.7611 9.51-3.7611 3.46 0 5.71 1.8589 2.24 1.859 2.24 4.3664 0 1.686-1.03 2.81-1 1.0807-2.86 1.0807-1.77 0-2.81-1.124-.99-1.124-.99-2.6803 0-2.8532 2.64-3.7178-1.34-.6053-2.9-.6485-3.2 0-5.71 3.2855-2.46 3.2856-2.46 8.7759v10.2457h10.37v2.7668h-10.07v28.4892q0 2.5506 1.04 3.372 1.08.8214 5.66.8214h1.86v2.7235q-3.54-.2594-11.24-.2594-1.08 0-2.77.0432-1.64.0433-3.89.1297-2.2.0865-3.41.0865v-2.7235q4.71 0 5.79-.562 1.08-.6053 1.08-3.4585v-28.6621z"/><path clip-path="url(#a)" d="m1515.69 53.0789q0-8.3436 5.36-14.2662 5.36-5.9226 13.06-5.9226 7.78 0 11.8 5.058 4.06 5.058 4.06 12.3208 0 1.3401-.34 1.5995-.35.2594-1.86.2594h-24.73q0 9.0352 2.68 13.2719 3.72 5.9226 9.99 5.9226.86 0 1.9-.1729 1.04-.1729 3.16-.9079 2.11-.7781 3.97-2.81 1.86-2.0318 2.94-5.2309.26-1.2537 1.13-1.2105 1.16 0 1.16 1.0376 0 .7781-.86 2.5506-.82 1.7292-2.42 3.8043-1.6 2.0751-4.71 3.6314-3.07 1.5563-6.79 1.5563-7.78 0-13.66-5.8794-5.84-5.9226-5.84-14.612m7.44-2.81h21.01q0-1.859-.35-3.934-.3-2.0751-1.25-4.9284-.91-2.8964-3.07-4.7121-2.16-1.8157-5.36-1.8157-1.43 0-2.98.6052-1.52.6052-3.38 2.0751-1.86 1.4698-3.15 4.7986-1.3 3.3288-1.47 7.9113z"/><path clip-path="url(#a)" d="m1554.99 72.576v-2.7235q4.71 0 5.79-.562 1.13-.6053 1.13-3.4585v-23.7338q0-3.2855-1.17-4.1069-1.13-.8214-5.75-.8214v-2.7668l12.32-.951v9.7269q1.25-3.8043 3.89-6.744 2.68-2.9829 7-2.9829 2.86 0 4.67 1.5995 1.86 1.5995 1.86 3.8043 0 1.9454-1.21 2.9397-1.17.9511-2.59.9511-1.6 0-2.73-.9943-1.08-1.0376-1.08-2.81 0-1.0808.48-1.9022.52-.8646.91-1.1672.39-.3026.64-.3891-.17-.0865-.95-.0865-4.88 0-7.69 4.8851-2.77 4.8419-2.77 11.7588v13.6178q0 2.5506 1.04 3.372 1.08.8214 5.71.8214h1.85v2.7235q-3.54-.2594-11.24-.2594-1.08 0-2.76.0432-1.69.0433-3.89.1297-2.21.0865-3.46.0865z"/><path clip-path="url(#a)" d="m1589.57 53.0789q0-8.3436 5.36-14.2662 5.36-5.9226 13.06-5.9226 7.78 0 11.8 5.058 4.07 5.058 4.07 12.3208 0 1.3401-.35 1.5995-.35.2594-1.86.2594h-24.73q0 9.0352 2.68 13.2719 3.72 5.9226 9.99 5.9226.86 0 1.9-.1729 1.04-.1729 3.16-.9079 2.12-.7781 3.97-2.81 1.86-2.0318 2.94-5.2309.26-1.2537 1.13-1.2105 1.17 0 1.17 1.0376 0 .7781-.87 2.5506-.82 1.7292-2.42 3.8043-1.6 2.0751-4.71 3.6314-3.07 1.5563-6.79 1.5563-7.78 0-13.66-5.8794-5.84-5.9226-5.84-14.612m7.44-2.81h21.01q0-1.859-.35-3.934-.3-2.0751-1.25-4.9284-.91-2.8964-3.07-4.7121-2.16-1.8157-5.36-1.8157-1.43 0-2.98.6052-1.52.6052-3.38 2.0751-1.85 1.4698-3.15 4.7986-1.3 3.3288-1.47 7.9113z"/><path clip-path="url(#a)" d="m1629.26 72.576v-2.7235q4.71 0 5.79-.562 1.08-.6053 1.08-3.4585v-23.7338q0-3.2855-1.16-4.1069-1.13-.8214-5.71-.8214v-2.7668l12.45-.951v9.2946q4.15-9.2946 13.1-9.2946 6.66 0 9.29 3.2855 1.95 2.2048 2.34 4.6689.43 2.4642.43 8.8624v16.9032q.09 1.859 1.51 2.2913 1.43.3891 5.41.3891v2.7235q-9.04-.2594-9.95-.2594-.69 0-9.98.2594v-2.7235q4.71 0 5.79-.562 1.12-.6053 1.12-3.4585v-20.6211q0-4.4961-1.38-7.1331-1.38-2.6804-5.19-2.6804-4.58 0-8.25 3.8476-3.68 3.8475-3.68 10.3322v16.2548q0 2.8532 1.08 3.4585 1.13.562 5.8.562v2.7235q-9.04-.2594-9.9-.2594-.7 0-9.99.2594z"/><path clip-path="url(#a)" d="m1684.16 67.7341q-5.62-5.8794-5.62-14.2661 0-8.4301 5.54-14.4824 5.53-6.0955 13.66-6.0955 5.4 0 9.46 2.5938 4.07 2.5506 4.07 6.9169 0 1.9454-1.17 3.0694-1.12 1.0808-2.9 1.0808-1.85 0-2.98-1.124-1.08-1.1672-1.08-2.9397 0-.7781.26-1.5563.26-.7782 1.21-1.5995 1-.8214 2.68-.9511-3.15-3.2423-9.29-3.2423-.09 0-.18 0-4.49 0-8.21 4.2366-3.72 4.2366-3.72 13.9203 0 5.058 1.21 8.7759 1.26 3.6746 3.29 5.5768 2.03 1.9021 4.02 2.81 1.99.8646 3.93.8646 8.69 0 11.63-9.2946.26-.8647 1.13-.8647 1.16 0 1.16.8647 0 .4323-.34 1.5563-.35 1.124-1.43 2.8964-1.08 1.7725-2.64 3.3288-1.51 1.5131-4.23 2.6371-2.68 1.124-6.06 1.124-7.78 0-13.4-5.8362z"/><path clip-path="url(#a)" d="m1717.28 53.0789q0-8.3436 5.36-14.2662 5.36-5.9226 13.05-5.9226 7.79 0 11.81 5.058 4.06 5.058 4.06 12.3208 0 1.3401-.35 1.5995-.34.2594-1.86.2594h-24.72q0 9.0352 2.68 13.2719 3.71 5.9226 9.98 5.9226.87 0 1.91-.1729 1.03-.1729 3.15-.9079 2.12-.7781 3.98-2.81 1.86-2.0318 2.94-5.2309.26-1.2537 1.12-1.2105 1.17 0 1.17 1.0376 0 .7781-.87 2.5506-.82 1.7292-2.42 3.8043-1.6 2.0751-4.71 3.6314-3.07 1.5563-6.79 1.5563-7.78 0-13.66-5.8794-5.83-5.9226-5.83-14.612m7.43-2.81h21.01q0-1.859-.34-3.934-.31-2.0751-1.26-4.9284-.9-2.8964-3.07-4.7121-2.16-1.8157-5.36-1.8157-1.42 0-2.98.6052-1.51.6052-3.37 2.0751-1.86 1.4698-3.16 4.7986-1.29 3.3288-1.47 7.9113z"/></g><path d="m296.106 1386.38 3.25-.04 3.25-.05 3.25-.05 3.25-.03 30.05.17 30.051-.85 15.025.37 15.026.49 15.025-1.4 15.026-3.95 9.029-2.61 9.03-1.73 9.029-.2 9.03 1.44 9.03 2.59 9.029 2.8 9.03 2.12 9.03.91 15.268-.79 15.269-1.18 15.269.45 15.269 1.18 16.586.36 16.587-.13 16.586.12 16.586-2.03 15.291-5.68 15.291-6.25 7.646-1.38 7.645.55 7.646 2.44 7.645 3.74 8.197 4.27 8.197 3.21 8.197 1.16 8.197-1.15 8.196-2.84 8.197-3.35 8.197-2.57 8.197-.86 9.497 1.32 9.497 2.98 9.496 3.16 9.497 2.2 18.994 1.1 18.994-.17 8.439-.95 8.44-2.49 8.44-4.41 8.439-5.78 8.44-5.65 8.439-3.49 4.22-.37 4.22.71 4.22 1.8 4.22 2.75 7.401 6.36 7.4 6.56 3.701 2.62 3.7 1.79 3.701.72 3.7-.51 3.7-1.83 3.701-3.13 3.7-4.33 3.701-5.32 7.401-12.36 7.4-12.17 4.035-5.45 4.034-4.05 4.035-2.35 4.034-.5 4.035 1.38 4.034 3.12 4.034 4.56 4.035 5.65 8.069 12.7 8.072 11.65 4.03 4.59 4.04 3.53 4.03 2.46 4.03 1.49 16.24.6 16.23.27 4.06-.26 4.06-.91 4.06-1.84 4.06-3 8.11-9.69 8.12-13.24 4.49-7.4 4.48-6.26 4.49-4.13 4.49-1.14 2.24.73 2.24 1.64 2.25 2.53 2.24 3.38 4.49 8.87 4.49 10.56 4.48 10.32 4.49 7.6 2.24 1.91 2.25.17 2.24-1.93 2.24-4.37 2.25-7.12 2.24-10.13 1.12-6.26 1.12-7.1 1.13-7.94 1.12-8.81 1.12-9.67 1.12-10.54 1.12-11.41 1.13-12.28 1.12-13.12 1.12-13.95 1.12-14.76 1.12-15.53 2.14-31.56 2.13-33.94 2.14-35.92 2.13-37.47 4.27-77.48 4.27-76.9 2.13-36.62 2.14-34.506 1.07-16.252 1.06-15.475 1.07-14.62 1.07-13.687 1.07-12.68 1.06-11.602 1.07-10.457 1.07-9.248 1.07-7.981 1.06-6.662 1.07-5.294 1.07-3.884 1.06-2.439 1.07-.964 1.07.531 1.07 2.044 1.06 3.562 1.07 5.082 1.07 6.594 1.07 8.091 1.06 9.563 1.07 11.005 1.07 12.408 1.07 13.764 1.06 15.064 1.07 16.303 1.07 17.471 1.06 18.562 1.07 19.569 1.07 20.485 1.07 21.304 1.06 22.02 2.14 45.749 2.13 47.26 2.14 47.77 2.13 47.26 2.14 45.69 2.13 43.08 1.11 21.02 1.11 19.88 1.11 18.62 1.11 17.22 1.11 15.69 1.11 14.04 1.11 12.28 1.11 10.41 1.11 8.45 1.11 6.39 1.11 4.25 1.11 2.05 1.11-.2 1.11-2.51 1.11-4.86 1.11-7.21 1.11-9.59 1.11-11.97 1.11-14.32 1.11-16.65 1.11-18.94 1.11-21.17 1.11-23.35 1.11-25.45 1.11-27.45 1.11-29.36 1.11-31.16 1.11-32.83 1.11-34.37 1.11-35.77 1.11-37.02 1.11-38.118 2.22-78.845 2.21-81.161 2.22-82.017 2.22-81.369 1.11-39.968 1.11-39.24 1.11-38.327 1.11-37.231 1.11-35.958 1.11-34.513 1.11-32.901 1.11-31.132 1.11-29.211 1.11-27.148 1.11-24.955 1.11-22.638 1.11-20.211 1.11-17.686 1.11-15.074 1.11-12.387 1.11-9.641 1.11-6.845 1.11-4.018 1.11-1.17 1.11 1.684 1.11 4.53 1.11 7.352 1.11 10.14.93 10.66.94 12.562.93 14.421.94 16.23.93 17.982.93 19.673.94 21.295.93 22.844.94 24.313.93 25.699.93 26.997.94 28.203.93 29.312.94 30.322.93 31.228.94 32.029 1.86 66.027 1.87 67.914 1.87 68.901 1.87 68.985 1.87 68.176 1.87 66.5.93 32.359.93 31.636.94 30.8.93 29.9.94 28.88.93 27.8.94 26.63.93 25.39.93 24.07.94 22.7.93 21.27.94 19.78.93 18.25.94 16.68.93 15.06.93 13.44.94 11.78.93 10.1.94 8.43.93 6.74.93 5.07.94 3.39.93 1.74.94.12.93-1.5.94-3.06.93-4.59.93-6.08.94-7.52.93-8.89.94-10.23.93-11.48.94-12.68.93-13.8.93-14.85.94-15.82 1.14-20.53 1.14-21.7 1.14-22.73 1.14-23.6 2.28-49.16 2.28-50.72 2.28-50.99 2.28-50.023 2.29-47.874 2.28-44.639 1.14-20.798 1.14-19.634 1.14-18.369 1.14-17.011 1.14-15.572 1.14-14.059 1.14-12.484 1.14-10.857 1.14-9.186 1.14-7.486 1.14-5.762 1.14-4.029 1.14-2.293 1.14-.567 1.15 1.141 1.14 2.822 1.14 4.465 1.14 6.064 1.14 7.609 1.14 9.094 1.14 10.512 1.14 11.854 1.14 13.119 1.14 14.297 1.14 15.386 1.14 16.382 1.14 17.281 1.14 18.082 2.28 38.16 2.28 40.139 4.57 82.976 4.56 81.49 2.28 38.49 2.28 36.23 2.28 33.51 2.28 30.42 2.09 24.93 2.09 21.99 2.09 18.97 2.09 15.97 2.09 13.01 2.09 10.17 2.09 7.5 2.09 5.03 2.09 2.8 2.09.82 2.09-.85 2.09-2.26 4.18-7.52 4.18-9.68 4.18-9.86 4.18-8.47 4.18-6 4.17-2.97 4.18.14 4.18 2.92 4.18 5.09 4.18 6.49 7.72 12.95 7.72 10.77 3.86 3.82 3.86 2.69 3.86 1.66 3.86.83 15.44-.08 15.44.28 3.91-.45 3.91-1.09 3.91-1.94 3.91-2.9 7.82-8.8 7.82-11.74 7.82-12.16 7.82-9.29 3.91-2.65 3.91-.98 3.91.79 3.91 2.53 4.38 4.68 4.38 6.22 4.39 7.21 4.38 7.55 4.38 7.24 4.38 6.32 4.38 4.92 4.39 3.2 4.38 1.34 4.38-.43 4.38-1.99 4.38-3.15 8.77-7.88 8.76-6.8 3.97-1.92 3.97-.98 3.97-.01 3.97.91 7.95 3.97 7.94 5.49 7.94 5.35 7.94 4.02 7.94 2.32 7.94.95 18.19.21 18.18-.78 18.19-4.62 18.18-5.11 8.42-.02 8.42 1.95 8.42 3.26 8.42 3.28 8.42 1.89 8.42-.4 8.42-2.75 8.41-4.22 8.3-4.22 8.3-2.91 8.3-.72 8.3 1.53 8.3 3.17 8.3 3.75 8.3 3.31 8.3 2.26 16.12 1.35 16.12-.16 16.12.15 16.11-.44 16.53-1.29 16.52-.1 16.52 1.47 16.52-.16 18.1-4.48 18.11-4.62 9.05-.31 9.05 1.34 9.05 2.45 9.05 2.7 13.15 2.76 13.15.67 13.14-.52 13.15-.33 26.3.78 26.29-.11 5.4-.01 5.39.04 5.4.08 5.39.07" style="stroke:#000;stroke-linecap:round;stroke-linejoin:round;stroke-width:8;fill:none;clip-path:url(#b)"/><path clip-path="url(#a)" d="m1957.73 270.476h324.47v-103.68h-324.47z" fill="#fff" fill-rule="evenodd"/><path d="m1957.73 270.476h324.47v-103.68h-324.47z" style="stroke:#000;stroke-linecap:round;stroke-linejoin:round;stroke-width:4;fill:none;clip-path:url(#a)"/><path d="m1981.25 218.636h141.1" style="stroke:#000;stroke-linecap:round;stroke-linejoin:round;stroke-width:4;fill:none;clip-path:url(#a)"/><path clip-path="url(#a)" d="m2168.07 198.328q0 .445-.19.656-.16.187-.42.234-.26.024-.94.024-1.14 0-1.87.093-.73.071-1.17.188-.45.094-.7.421-.24.305-.35.586-.1.281-.26.913l-6.42 25.554q-.21.75-.21 1.125 0 .398.23.562.24.164.99.234 1.19.117 2.06.117 1.15 0 1.31.164.12.164.12.398 0 .422-.19.656-.19.211-.35.234-.14.024-.42.024l-6.42-.141-6.3.141q-.7 0-.7-.539 0-.351.04-.539.07-.211.31-.281.25-.093.44-.093.19-.024.73-.024.96 0 1.59-.023.66-.047 1.13-.164.49-.141.72-.258.26-.14.45-.445.21-.328.28-.586.09-.257.21-.796l6.46-25.858q.1-.422.1-.75 0-.632-.75-.773-.73-.14-2.56-.14-.56 0-.79-.024-.21-.023-.4-.14-.16-.117-.16-.375 0-.328.09-.539.09-.234.26-.304.18-.07.3-.094.12-.023.31-.023l6.39.14 6.32-.14q.73 0 .73.585z" fill-rule="evenodd"/><path clip-path="url(#a)" d="m2173.48 218.518q0-8.104 3.02-14.639 1.29-2.74 3.1-5.035 1.8-2.296 2.99-3.303 1.2-1.007 1.53-1.007.47 0 .49.468 0 .235-.63.82-7.73 7.87-7.71 22.696 0 14.874 7.52 22.439.82.82.82 1.078 0 .468-.49.468-.33 0-1.48-.96-1.15-.961-2.93-3.162-1.78-2.202-3.06-4.896-3.17-6.534-3.17-14.967z" fill-rule="evenodd"/><path clip-path="url(#a)" d="m2212.14 212.475q0 1.312-.82 2.062-.82.726-1.75.726-.89 0-1.36-.516-.47-.515-.47-1.171 0-.89.65-1.663.66-.773 1.64-.937-.96-.609-2.39-.609-.93 0-1.75.492-.8.492-1.29 1.125-.47.632-.89 1.545-.4.89-.56 1.429-.14.516-.26 1.078l-1.64 6.558q-.8 3.115-.8 4.216 0 1.358.66 2.272.66.89 1.97.89.51 0 1.1-.141.58-.163 1.33-.585.78-.445 1.46-1.101.7-.679 1.38-1.827.68-1.148 1.12-2.623.14-.516.61-.516.59 0 .59.469 0 .398-.33 1.241-.31.82-.99 1.898-.65 1.054-1.52 2.014-.86.937-2.15 1.593-1.29.655-2.7.655-2.01 0-3.35-1.077-1.33-1.077-1.82-2.576-.12.21-.28.491-.17.281-.66.914-.47.609-1.01 1.077-.54.445-1.38.797-.82.374-1.71.374-1.12 0-2.13-.327-.98-.328-1.69-1.078-.7-.749-.7-1.78 0-1.148.77-1.944.8-.82 1.88-.82.68 0 1.22.398.56.398.56 1.265 0 .96-.66 1.687-.65.726-1.59.913.96.609 2.39.609 1.54 0 2.76-1.359 1.22-1.358 1.81-3.63 1.45-5.457 2.01-7.893.56-2.46.56-3.514 0-.983-.26-1.663-.25-.679-.7-.983-.42-.328-.82-.445-.37-.118-.79-.118-.71 0-1.5.281-.78.282-1.71.937-.92.633-1.78 1.944-.87 1.312-1.46 3.116-.11.538-.63.538-.56-.023-.56-.492 0-.398.3-1.217.33-.844.99-1.898.68-1.054 1.54-1.991.89-.96 2.18-1.616 1.31-.656 2.72-.656.63 0 1.24.141.63.117 1.38.468.78.352 1.45 1.125.68.773 1.11 1.897.28-.539.65-1.054.4-.515 1.01-1.148.63-.656 1.5-1.03.89-.399 1.87-.399.96 0 1.9.258.94.234 1.73 1.007.82.75.82 1.897z" fill-rule="evenodd"/><path clip-path="url(#a)" d="m2216.75 242.035q0-.235.61-.82 7.73-7.87 7.73-22.697 0-14.873-7.42-22.391-.92-.867-.92-1.125 0-.468.47-.468.33 0 1.48.96 1.17.96 2.93 3.162 1.78 2.202 3.09 4.895 3.16 6.535 3.16 14.967 0 8.105-3.02 14.639-1.29 2.741-3.09 5.036-1.81 2.296-3 3.303-1.2 1.007-1.55 1.007-.47 0-.47-.468z" fill-rule="evenodd"/><path clip-path="url(#a)" d="m350.119 245.568q0 .667-.773.738h-1.581q-1.616 0-2.318-.246-.703-.246-1.511-1.371-.492-.702-1.722-3.97-1.194-3.302-2.951-8.291-1.722-4.989-2.881-7.94l-17.321 20.447q-1.194 1.511-2.389 1.511-.878 0-1.511-.597-.632-.597-.632-1.511 0-.667.246-1.054.281-.386 1.019-1.159l19.885-19.71-6.991-19.57q-1.335-3.618-2.108-4.532-.738-.913-2.565-1.23-.668-.175-.668-.737 0-.773 1.3-.773 6.957 0 8.784 5.094l14.686 40.931q.808 2.354 1.651 3.337.351.457.351.633z" fill-rule="evenodd"/><path clip-path="url(#a)" d="m376.004 234.571q.07-.878 1.441-.878h44.092q2.073 0 2.108.808 0 .878-1.967.843h-43.742q-1.932.035-1.932-.773m0-14.053q0-.879 1.511-.844h43.952q2.143 0 2.178.844 0 .808-1.827.808h-44.373q-1.441 0-1.441-.808z" fill-rule="evenodd"/><path clip-path="url(#a)" d="m451.398 233.903q0-2.143 1.16-2.951 1.159-.843 2.389-.843 1.651 0 2.6 1.054.984 1.019.984 2.459 0 1.441-.984 2.495-.949 1.019-2.6 1.019-.808 0-1.23-.141.949 3.303 3.83 5.692 2.916 2.389 6.745 2.389 4.814 0 7.695-4.673 1.721-3.021 1.721-9.872 0-6.043-1.3-9.065-2.002-4.602-6.113-4.602-5.832 0-9.275 5.024-.422.632-.914.667-.702 0-.878-.386-.141-.422-.141-1.511v-21.291q0-1.721.703-1.721.281 0 .878.21 4.533 2.003 9.557 2.038 5.164 0 9.802-2.108.351-.211.562-.211.703 0 .738.808 0 .281-.597 1.125-.562.808-1.792 1.897-1.23 1.054-2.811 2.073-1.581 1.019-3.9 1.721-2.283.668-4.813.668-3.021 0-6.113-.949v14.019q3.724-3.654 9.135-3.654 5.762 0 9.732 4.637 3.97 4.638 3.97 11.103 0 6.78-4.708 11.418-4.673 4.638-10.997 4.638-5.762 0-9.416-4.111-3.619-4.111-3.619-9.065z" fill-rule="evenodd"/><path clip-path="url(#a)" d="m487.319 233.903q0-2.143 1.16-2.951 1.159-.843 2.389-.843 1.651 0 2.6 1.054.983 1.019.983 2.459 0 1.441-.983 2.495-.949 1.019-2.6 1.019-.808 0-1.23-.141.949 3.303 3.83 5.692 2.916 2.389 6.745 2.389 4.814 0 7.695-4.673 1.721-3.021 1.721-9.872 0-6.043-1.3-9.065-2.002-4.602-6.113-4.602-5.832 0-9.275 5.024-.422.632-.914.667-.703 0-.878-.386-.141-.422-.141-1.511v-21.291q0-1.721.703-1.721.281 0 .878.21 4.532 2.003 9.557 2.038 5.164 0 9.802-2.108.351-.211.562-.211.703 0 .738.808 0 .281-.597 1.125-.563.808-1.792 1.897-1.23 1.054-2.811 2.073-1.581 1.019-3.9 1.721-2.283.668-4.813.668-3.022 0-6.113-.949v14.019q3.724-3.654 9.134-3.654 5.762 0 9.732 4.637 3.971 4.638 3.971 11.103 0 6.78-4.708 11.418-4.673 4.638-10.997 4.638-5.762 0-9.416-4.111-3.619-4.111-3.619-9.065z" fill-rule="evenodd"/><path clip-path="url(#a)" d="m523.24 222.485q0-10.575 2.67-16.337 3.724-8.573 12.508-8.573 1.862 0 3.794.527 1.968.492 4.427 2.424 2.495 1.933 4.005 5.095 2.881 6.113 2.881 16.864 0 10.505-2.67 16.232-3.9 8.362-12.508 8.362-3.232 0-6.534-1.652-3.268-1.651-5.341-5.621-3.232-5.938-3.232-17.321m5.973-.878q0 10.856.773 15.177.878 4.673 3.267 6.711 2.424 2.003 5.094 2.003 2.881 0 5.271-2.144 2.424-2.178 3.162-6.851.808-4.602.773-14.896 0-10.013-.703-14.019-.949-4.672-3.478-6.535-2.495-1.897-5.025-1.897-.948 0-1.967.281-.984.281-2.424 1.089-1.441.809-2.565 2.811-1.089 2.003-1.616 5.024-.562 3.9-.562 13.246z" fill-rule="evenodd"/><path clip-path="url(#a)" d="m577.884 245.498v-2.214q3.829 0 4.708-.457.878-.491.878-2.81v-19.289q0-2.67-.949-3.337-.913-.668-4.637-.668v-2.248l10.118-.773v7.553q3.373-7.553 10.646-7.553 5.41 0 7.553 2.67 1.581 1.792 1.898 3.794.351 2.003.351 7.203v13.737q.07 1.511 1.23 1.862 1.159.316 4.391.316v2.214q-7.343-.211-8.08-.211-.563 0-8.116.211v-2.214q3.829 0 4.708-.457.913-.491.913-2.81v-16.759q0-3.654-1.124-5.797-1.124-2.178-4.216-2.178-3.724 0-6.711 3.127-2.986 3.126-2.986 8.396v13.211q0 2.319.878 2.81.914.457 4.708.457v2.214q-7.343-.211-8.045-.211-.563 0-8.116.211z" fill-rule="evenodd"/><path clip-path="url(#a)" d="m617.702 245.498v-2.214q3.829 0 4.708-.457.878-.491.878-2.81v-19.289q0-2.67-.949-3.337-.913-.668-4.637-.668v-2.248l10.118-.773v7.553q3.373-7.553 10.646-7.553 8.432 0 9.591 7.026 1.23-2.74 3.795-4.883 2.6-2.143 6.64-2.143 5.411 0 7.554 2.67 1.581 1.792 1.897 3.794.316 2.003.316 7.203v13.737q.07 1.511 1.23 1.862 1.159.316 4.392.316v2.214q-7.343-.211-8.046-.211-.562 0-8.151.211v-2.214q3.83 0 4.708-.457.913-.491.913-2.81v-16.759q0-3.654-1.124-5.797-1.124-2.178-4.216-2.178-3.724 0-6.711 3.127-2.986 3.126-2.986 8.396v13.211q0 2.319.878 2.81.914.457 4.744.457v2.214q-7.343-.211-8.081-.211-.562 0-8.116.211v-2.214q3.829 0 4.708-.457.913-.491.913-2.81v-16.759q0-3.654-1.124-5.797-1.124-2.178-4.216-2.178-3.724 0-6.711 3.127-2.986 3.126-2.986 8.396v13.211q0 2.319.878 2.81.914.457 4.708.457v2.214q-7.343-.211-8.045-.211-.562 0-8.116.211z" fill-rule="evenodd"/><path clip-path="url(#a)" d="m355.998 326.173q-.948 4.532-2.178 7.132-1.967 3.97-5.305 3.97-2.53 0-4.322-1.546-1.791-1.546-2.213-3.865-4.603 5.411-9.381 5.411-4.216 0-6.886-3.197-2.67-3.233-2.67-8.327 0-5.13 2.53-10.048 2.564-4.919 6.605-7.976 4.04-3.056 8.186-3.056 4.392 0 6.64 4.602.176-1.265.984-2.213.808-.949 2.038-.949.948 0 1.51.527.562.492.562 1.406 0 .456-.491 2.459l-2.6 10.048-1.581 6.5q-.598 2.389-.773 3.267-.141.879-.141 2.038 0 3.303 2.143 3.303 1.054 0 1.898-.668.843-.667 1.51-2.073.668-1.405 1.09-2.705.421-1.335.983-3.443.176-.843.316-1.054.176-.246.668-.246.878 0 .878.703m-9.872-13.597q0-.316-.246-1.195-.246-.878-.808-2.108-.562-1.229-1.792-2.108-1.195-.913-2.811-.913-2.178 0-4.462 1.862-2.248 1.862-3.9 5.024-1.264 2.53-2.635 7.835-1.335 5.305-1.335 7.94 0 1.616.352 3.057.386 1.405 1.475 2.564 1.089 1.125 2.776 1.125 4.11 0 8.151-5.095.773-.878.948-1.229.211-.387.492-1.441l3.584-14.088q.211-1.055.211-1.23z" fill-rule="evenodd"/><path clip-path="url(#a)" d="m380.69 325.54q.071-.878 1.441-.878h44.093q2.073 0 2.108.808 0 .878-1.968.843h-43.741q-1.933.035-1.933-.773m0-14.053q0-.879 1.511-.844h43.952q2.144 0 2.179.844 0 .808-1.827.808h-44.374q-1.441 0-1.441-.808z" fill-rule="evenodd"/><path clip-path="url(#a)" d="m456.085 313.454q0-10.575 2.67-16.337 3.724-8.573 12.507-8.573 1.863 0 3.795.527 1.967.492 4.427 2.425 2.494 1.932 4.005 5.094 2.881 6.113 2.881 16.864 0 10.505-2.67 16.232-3.9 8.362-12.508 8.362-3.232 0-6.535-1.652-3.267-1.651-5.34-5.621-3.232-5.938-3.232-17.321m5.972-.878q0 10.856.773 15.178.879 4.672 3.268 6.71 2.424 2.003 5.094 2.003 2.881 0 5.27-2.143 2.424-2.179 3.162-6.851.808-4.603.773-14.897 0-10.013-.702-14.019-.949-4.672-3.479-6.534-2.494-1.898-5.024-1.898-.948 0-1.967.281-.984.282-2.425 1.09-1.44.808-2.564 2.81-1.089 2.003-1.616 5.024-.563 3.9-.563 13.246z" fill-rule="evenodd"/><path clip-path="url(#a)" d="m492.807 335.307q-1.089-1.159-1.089-2.67 0-1.511 1.089-2.6 1.089-1.124 2.74-1.124 1.581 0 2.635 1.054 1.089 1.019 1.089 2.705 0 1.652-1.159 2.741-1.124 1.054-2.565 1.054-1.651 0-2.74-1.16z" fill-rule="evenodd"/><path clip-path="url(#a)" d="m511.517 313.454q0-10.575 2.671-16.337 3.724-8.573 12.507-8.573 1.862 0 3.795.527 1.967.492 4.426 2.425 2.495 1.932 4.006 5.094 2.881 6.113 2.881 16.864 0 10.505-2.671 16.232-3.899 8.362-12.507 8.362-3.232 0-6.535-1.652-3.267-1.651-5.34-5.621-3.233-5.938-3.233-17.321m5.973-.878q0 10.856.773 15.178.878 4.672 3.267 6.71 2.425 2.003 5.095 2.003 2.881 0 5.27-2.143 2.424-2.179 3.162-6.851.808-4.603.773-14.897 0-10.013-.703-14.019-.948-4.672-3.478-6.534-2.495-1.898-5.024-1.898-.949 0-1.968.281-.983.282-2.424 1.09-1.44.808-2.565 2.81-1.089 2.003-1.616 5.024-.562 3.9-.562 13.246z" fill-rule="evenodd"/><path clip-path="url(#a)" d="m547.438 324.873q0-2.144 1.16-2.952 1.159-.843 2.389-.843 1.651 0 2.6 1.054.983 1.019.983 2.46 0 1.44-.983 2.494-.949 1.019-2.6 1.019-.808 0-1.23-.141.949 3.303 3.83 5.692 2.916 2.389 6.745 2.389 4.814 0 7.695-4.673 1.721-3.021 1.721-9.872 0-6.043-1.3-9.065-2.003-4.602-6.113-4.602-5.832 0-9.275 5.024-.422.632-.914.667-.703 0-.878-.386-.141-.422-.141-1.511v-21.291q0-1.721.703-1.721.281 0 .878.21 4.532 2.003 9.557 2.038 5.164 0 9.802-2.108.351-.211.562-.211.703 0 .738.808 0 .282-.597 1.125-.563.808-1.792 1.897-1.23 1.054-2.811 2.073-1.581 1.019-3.9 1.721-2.283.668-4.813.668-3.022 0-6.113-.949v14.019q3.724-3.654 9.134-3.654 5.762 0 9.732 4.637 3.971 4.638 3.971 11.103 0 6.78-4.708 11.418-4.673 4.638-10.997 4.638-5.762 0-9.416-4.111-3.619-4.111-3.619-9.064z" fill-rule="evenodd"/><path clip-path="url(#a)" d="m583.359 324.873q0-2.144 1.159-2.952 1.16-.843 2.389-.843 1.652 0 2.6 1.054.984 1.019.984 2.46 0 1.44-.984 2.494-.948 1.019-2.6 1.019-.808 0-1.229-.141.948 3.303 3.829 5.692 2.916 2.389 6.746 2.389 4.813 0 7.694-4.673 1.722-3.021 1.722-9.872 0-6.043-1.3-9.065-2.003-4.602-6.113-4.602-5.833 0-9.276 5.024-.421.632-.913.667-.703 0-.878-.386-.141-.422-.141-1.511v-21.291q0-1.721.703-1.721.281 0 .878.21 4.532 2.003 9.556 2.038 5.165 0 9.803-2.108.351-.211.562-.211.703 0 .738.808 0 .282-.598 1.125-.562.808-1.791 1.897-1.23 1.054-2.811 2.073-1.581 1.019-3.9 1.721-2.284.668-4.813.668-3.022 0-6.114-.949v14.019q3.725-3.654 9.135-3.654 5.762 0 9.732 4.637 3.97 4.638 3.97 11.103 0 6.78-4.708 11.418-4.672 4.638-10.996 4.638-5.762 0-9.416-4.111-3.619-4.111-3.619-9.064z" fill-rule="evenodd"/><path clip-path="url(#a)" d="m638.003 336.467v-2.214q3.829 0 4.708-.456.878-.492.878-2.811v-19.289q0-2.67-.949-3.337-.913-.668-4.637-.668v-2.248l10.118-.773v7.553q3.373-7.553 10.646-7.553 8.432 0 9.591 7.026 1.23-2.74 3.795-4.883 2.599-2.143 6.64-2.143 5.41 0 7.554 2.67 1.581 1.792 1.897 3.794.316 2.003.316 7.203v13.737q.07 1.511 1.23 1.862 1.159.316 4.391.316v2.214q-7.343-.211-8.045-.211-.562 0-8.151.211v-2.214q3.829 0 4.708-.456.913-.492.913-2.811v-16.759q0-3.654-1.124-5.797-1.124-2.178-4.216-2.178-3.724 0-6.711 3.127-2.986 3.127-2.986 8.397v13.21q0 2.319.878 2.811.914.456 4.743.456v2.214q-7.343-.211-8.08-.211-.563 0-8.116.211v-2.214q3.829 0 4.708-.456.913-.492.913-2.811v-16.759q0-3.654-1.124-5.797-1.124-2.178-4.216-2.178-3.724 0-6.711 3.127-2.986 3.127-2.986 8.397v13.21q0 2.319.878 2.811.914.456 4.708.456v2.214q-7.343-.211-8.045-.211-.563 0-8.116.211z" fill-rule="evenodd"/><path clip-path="url(#a)" d="m697.045 336.467v-2.214q3.829 0 4.708-.456.878-.492.878-2.811v-19.289q0-2.67-.949-3.337-.913-.668-4.637-.668v-2.248l10.118-.773v7.553q3.373-7.553 10.646-7.553 8.432 0 9.591 7.026 1.23-2.74 3.795-4.883 2.599-2.143 6.64-2.143 5.41 0 7.554 2.67 1.581 1.792 1.897 3.794.316 2.003.316 7.203v13.737q.07 1.511 1.23 1.862 1.159.316 4.391.316v2.214q-7.343-.211-8.045-.211-.562 0-8.151.211v-2.214q3.829 0 4.708-.456.913-.492.913-2.811v-16.759q0-3.654-1.124-5.797-1.124-2.178-4.216-2.178-3.724 0-6.711 3.127-2.986 3.127-2.986 8.397v13.21q0 2.319.878 2.811.914.456 4.743.456v2.214q-7.343-.211-8.08-.211-.563 0-8.116.211v-2.214q3.829 0 4.708-.456.913-.492.913-2.811v-16.759q0-3.654-1.124-5.797-1.124-2.178-4.216-2.178-3.724 0-6.711 3.127-2.986 3.127-2.986 8.397v13.21q0 2.319.878 2.811.914.456 4.708.456v2.214q-7.343-.211-8.045-.211-.563 0-8.116.211z" fill-rule="evenodd"/><path clip-path="url(#a)" d="m359.994 380.268-10.365 41.599q-.421 1.862-.421 3.443 0 3.302 2.143 3.302 1.054 0 1.897-.667.843-.668 1.511-2.073.667-1.406 1.089-2.706.422-1.335.984-3.443.175-.843.316-1.054.176-.246.668-.246.878 0 .878.703-.949 4.532-2.178 7.132-1.968 3.97-5.306 3.97-2.529 0-4.321-1.546-1.792-1.545-2.213-3.864-4.603 5.41-9.381 5.41-4.216 0-6.886-3.197-2.67-3.232-2.67-8.327 0-5.129 2.529-10.048 2.565-4.918 6.605-7.975 4.041-3.057 8.186-3.057 4.392 0 6.641 4.603l4.321-17.075.211-1.406q0-.421-.176-.632-.14-.246-.983-.422-.809-.175-2.425-.175-.667 0-.983-.035-.282-.035-.527-.211-.246-.211-.246-.633 0-1.229 1.018-1.37 6.746-.773 9.135-.773.422 0 .668.211.246.176.246.387zm-11.173 25.261q0-.316-.246-1.194-.246-.879-.808-2.108-.562-1.23-1.791-2.108-1.195-.914-2.811-.914-2.178 0-4.462 1.862-2.249 1.862-3.9 5.024-1.265 2.53-2.635 7.835-1.335 5.305-1.335 7.941 0 1.616.351 3.056.387 1.405 1.476 2.565 1.089 1.124 2.775 1.124 4.111 0 8.151-5.094.773-.879.949-1.23.211-.386.492-1.44l3.584-14.089q.21-1.054.21-1.23z" fill-rule="evenodd"/><path clip-path="url(#a)" d="m382.725 418.494q.07-.879 1.44-.879h44.093q2.073 0 2.108.808 0 .879-1.967.844h-43.742q-1.932.035-1.932-.773m0-14.054q0-.878 1.511-.843h43.952q2.143 0 2.178.843 0 .808-1.827.808h-44.374q-1.44 0-1.44-.808z" fill-rule="evenodd"/><path clip-path="url(#a)" d="m458.119 406.408q0-10.576 2.67-16.337 3.724-8.573 12.508-8.573 1.862 0 3.794.527 1.968.492 4.427 2.424 2.495 1.932 4.005 5.095 2.881 6.113 2.881 16.864 0 10.505-2.67 16.231-3.9 8.362-12.507 8.362-3.233 0-6.535-1.651-3.268-1.651-5.341-5.621-3.232-5.938-3.232-17.321m5.973-.879q0 10.857.773 15.178.878 4.673 3.267 6.711 2.424 2.002 5.095 2.002 2.881 0 5.27-2.143 2.424-2.178 3.162-6.851.808-4.602.773-14.897 0-10.013-.703-14.018-.949-4.673-3.478-6.535-2.495-1.897-5.024-1.897-.949 0-1.968.281-.984.281-2.424 1.089-1.441.808-2.565 2.811-1.089 2.002-1.616 5.024-.562 3.9-.562 13.245z" fill-rule="evenodd"/><path clip-path="url(#a)" d="m494.841 428.261q-1.089-1.16-1.089-2.67 0-1.511 1.089-2.6 1.089-1.124 2.741-1.124 1.581 0 2.635 1.054 1.089 1.018 1.089 2.705 0 1.651-1.16 2.74-1.124 1.054-2.564 1.054-1.652 0-2.741-1.159z" fill-rule="evenodd"/><path clip-path="url(#a)" d="m506.302 388.349v-2.249q8.643 0 13.105-4.602 1.229 0 1.44.281.211.281.211 1.581v40.369q0 2.143 1.054 2.81 1.054.668 5.656.668h2.284v2.213q-2.529-.211-11.664-.211-9.135 0-11.629.211v-2.213h2.283q4.532 0 5.622-.633 1.089-.667 1.089-2.845v-37.277q-3.76 1.897-9.451 1.897z" fill-rule="evenodd"/><path clip-path="url(#a)" d="m536.756 429.42q0-1.3.105-1.686.141-.387.703-.984l13.807-15.388q7.554-8.503 7.554-15.916 0-4.813-2.53-8.256-2.494-3.444-7.097-3.444-3.162 0-5.832 1.933-2.67 1.932-3.9 5.375.211-.07.949-.07 1.792 0 2.775 1.124 1.019 1.125 1.019 2.635 0 1.933-1.264 2.881-1.23.914-2.46.914-.492 0-1.159-.106-.633-.105-1.652-1.089-1.018-1.019-1.018-2.81 0-5.025 3.794-9.03 3.83-4.005 9.662-4.005 6.605 0 10.926 3.935 4.357 3.9 4.357 10.013 0 2.143-.668 4.111-.632 1.932-1.51 3.443-.844 1.51-3.162 3.935-2.319 2.424-4.181 4.145-1.862 1.722-6.043 5.376l-7.624 7.413h12.964q6.324 0 6.816-.562.703-1.019 1.581-6.394h1.827l-2.038 12.507z" fill-rule="evenodd"/><path clip-path="url(#a)" d="m572.676 417.826q0-2.143 1.16-2.951 1.159-.843 2.389-.843 1.651 0 2.6 1.054.984 1.019.984 2.459 0 1.441-.984 2.495-.949 1.018-2.6 1.018-.808 0-1.23-.14.949 3.302 3.83 5.692 2.916 2.389 6.745 2.389 4.814 0 7.695-4.673 1.721-3.022 1.721-9.873 0-6.043-1.3-9.064-2.002-4.603-6.113-4.603-5.832 0-9.275 5.024-.422.633-.914.668-.702 0-.878-.387-.141-.421-.141-1.51v-21.291q0-1.722.703-1.722.281 0 .878.211 4.533 2.003 9.557 2.038 5.164 0 9.802-2.108.351-.211.562-.211.703 0 .738.808 0 .281-.597 1.124-.562.808-1.792 1.897-1.23 1.054-2.811 2.073-1.581 1.019-3.9 1.722-2.283.667-4.813.667-3.021 0-6.113-.948v14.018q3.724-3.654 9.135-3.654 5.762 0 9.732 4.638 3.97 4.638 3.97 11.102 0 6.781-4.708 11.419-4.673 4.637-10.997 4.637-5.762 0-9.416-4.11-3.619-4.111-3.619-9.065z" fill-rule="evenodd"/><path clip-path="url(#a)" d="m627.32 429.42v-2.213q3.83 0 4.708-.457.878-.492.878-2.811v-19.288q0-2.67-.948-3.338-.914-.667-4.638-.667v-2.249l10.119-.773v7.554q3.372-7.554 10.645-7.554 8.432 0 9.592 7.027 1.229-2.74 3.794-4.884 2.6-2.143 6.64-2.143 5.411 0 7.554 2.67 1.581 1.792 1.897 3.795.316 2.002.316 7.202v13.738q.071 1.51 1.23 1.862 1.16.316 4.392.316v2.213q-7.343-.211-8.046-.211-.562 0-8.151.211v-2.213q3.83 0 4.708-.457.914-.492.914-2.811v-16.758q0-3.654-1.125-5.797-1.124-2.179-4.216-2.179-3.724 0-6.71 3.127-2.987 3.127-2.987 8.397v13.21q0 2.319.879 2.811.913.457 4.743.457v2.213q-7.343-.211-8.081-.211-.562 0-8.116.211v-2.213q3.83 0 4.708-.457.914-.492.914-2.811v-16.758q0-3.654-1.125-5.797-1.124-2.179-4.216-2.179-3.724 0-6.71 3.127-2.987 3.127-2.987 8.397v13.21q0 2.319.879 2.811.913.457 4.708.457v2.213q-7.343-.211-8.046-.211-.562 0-8.116.211z" fill-rule="evenodd"/><path clip-path="url(#a)" d="m686.362 429.42v-2.213q3.83 0 4.708-.457.878-.492.878-2.811v-19.288q0-2.67-.948-3.338-.914-.667-4.638-.667v-2.249l10.119-.773v7.554q3.372-7.554 10.645-7.554 8.432 0 9.592 7.027 1.229-2.74 3.794-4.884 2.6-2.143 6.64-2.143 5.411 0 7.554 2.67 1.581 1.792 1.897 3.795.316 2.002.316 7.202v13.738q.071 1.51 1.23 1.862 1.16.316 4.392.316v2.213q-7.343-.211-8.046-.211-.562 0-8.151.211v-2.213q3.83 0 4.708-.457.914-.492.914-2.811v-16.758q0-3.654-1.125-5.797-1.124-2.179-4.216-2.179-3.724 0-6.71 3.127-2.987 3.127-2.987 8.397v13.21q0 2.319.879 2.811.913.457 4.743.457v2.213q-7.343-.211-8.081-.211-.562 0-8.116.211v-2.213q3.83 0 4.708-.457.914-.492.914-2.811v-16.758q0-3.654-1.125-5.797-1.124-2.179-4.216-2.179-3.724 0-6.71 3.127-2.987 3.127-2.987 8.397v13.21q0 2.319.879 2.811.913.457 4.708.457v2.213q-7.343-.211-8.046-.211-.562 0-8.116.211z" fill-rule="evenodd"/><path clip-path="url(#a)" d="m360.024 477.012q0 3.197-1.159 6.781-1.125 3.548-2.811 6.605-1.651 3.057-3.935 6.184-2.284 3.126-4.216 5.34-1.932 2.213-3.935 4.216-1.089 1.089-1.581 1.827-.141.211-.246 1.862-.105 1.616-.105 2.213 0 9.381 4.391 9.381 3.654 0 9.346-5.621.738-.668.948-.668.422 0 .633.316.211.317.211.563 0 .456-1.687 2.002-1.651 1.546-2.67 2.249-3.794 2.74-6.921 2.74-6.676 0-8.046-11.032-1.475 1.476-2.6 2.459-1.51 1.511-1.932 1.863-.422.351-.668.351-.316 0-.597-.316-.246-.316-.246-.598 0-.21.352-.737l5.515-5.235q0-11.875 5.692-24.84.387-.913.949-2.073.562-1.194 1.862-3.373 1.3-2.178 2.6-3.829 1.335-1.686 3.127-2.951 1.791-1.3 3.478-1.3 4.251 0 4.251 5.621m-1.722-.281q0-3.759-2.459-3.759-1.581 0-2.811 1.616-1.194 1.616-2.951 5.165-1.827 3.759-3.689 10.188-1.827 6.395-2.6 9.908-.738 3.513-1.019 5.094 15.529-16.161 15.529-28.212z" fill-rule="evenodd"/><path clip-path="url(#a)" d="m381.877 511.197q.07-.878 1.44-.878h44.093q2.073 0 2.108.808 0 .878-1.967.843h-43.742q-1.932.035-1.932-.773m0-14.053q0-.879 1.511-.843h43.952q2.143 0 2.178.843 0 .808-1.827.808h-44.374q-1.44 0-1.44-.808z" fill-rule="evenodd"/><path clip-path="url(#a)" d="m457.271 481.053v-2.249q8.643 0 13.105-4.603 1.23 0 1.441.282.21.281.21 1.581v40.368q0 2.143 1.054 2.811 1.054.667 5.657.667h2.284v2.214q-2.53-.211-11.665-.211-9.135 0-11.629.211v-2.214h2.284q4.532 0 5.621-.632 1.089-.668 1.089-2.846v-37.277q-3.759 1.898-9.451 1.898z" fill-rule="evenodd"/><path clip-path="url(#a)" d="m486.743 520.964q-1.089-1.159-1.089-2.67 0-1.511 1.089-2.6 1.089-1.124 2.741-1.124 1.581 0 2.635 1.054 1.089 1.019 1.089 2.705 0 1.652-1.16 2.741-1.124 1.054-2.564 1.054-1.652 0-2.741-1.16z" fill-rule="evenodd"/><path clip-path="url(#a)" d="m505.454 522.124q0-1.3.105-1.687.141-.386.703-.983l13.808-15.389q7.553-8.502 7.553-15.915 0-4.814-2.529-8.257-2.495-3.443-7.097-3.443-3.162 0-5.833 1.932-2.67 1.933-3.899 5.376.21-.07.948-.07 1.792 0 2.776 1.124 1.019 1.124 1.019 2.635 0 1.932-1.265 2.881-1.23.913-2.459.913-.492 0-1.16-.105-.632-.106-1.651-1.089-1.019-1.019-1.019-2.811 0-5.024 3.794-9.029 3.83-4.006 9.662-4.006 6.605 0 10.927 3.935 4.356 3.9 4.356 10.014 0 2.143-.667 4.11-.633 1.932-1.511 3.443-.843 1.511-3.162 3.935-2.319 2.424-4.181 4.146-1.862 1.722-6.043 5.375l-7.624 7.414h12.964q6.324 0 6.816-.562.703-1.019 1.581-6.395h1.827l-2.037 12.508z" fill-rule="evenodd"/><path clip-path="url(#a)" d="m560.098 522.124v-2.214q3.829 0 4.708-.456.878-.492.878-2.811v-19.288q0-2.671-.949-3.338-.913-.668-4.637-.668v-2.248l10.118-.773v7.554q3.373-7.554 10.646-7.554 8.432 0 9.591 7.027 1.23-2.741 3.795-4.884 2.599-2.143 6.64-2.143 5.41 0 7.554 2.67 1.581 1.792 1.897 3.794.316 2.003.316 7.203v13.737q.07 1.511 1.23 1.862 1.159.316 4.391.316v2.214q-7.343-.211-8.045-.211-.562 0-8.151.211v-2.214q3.829 0 4.708-.456.913-.492.913-2.811v-16.759q0-3.654-1.124-5.797-1.124-2.178-4.216-2.178-3.724 0-6.711 3.127-2.986 3.127-2.986 8.397v13.21q0 2.319.878 2.811.914.456 4.743.456v2.214q-7.343-.211-8.08-.211-.563 0-8.116.211v-2.214q3.829 0 4.708-.456.913-.492.913-2.811v-16.759q0-3.654-1.124-5.797-1.125-2.178-4.216-2.178-3.724 0-6.711 3.127-2.986 3.127-2.986 8.397v13.21q0 2.319.878 2.811.914.456 4.708.456v2.214q-7.343-.211-8.046-.211-.562 0-8.115.211z" fill-rule="evenodd"/></svg>